<?xml version="1.0" standalone="no"?>
<!DOCTYPE svg PUBLIC "-//W3C//DTD SVG 20010904//EN"
 "http://www.w3.org/TR/2001/REC-SVG-20010904/DTD/svg10.dtd">
<svg version="1.0" xmlns="http://www.w3.org/2000/svg"
 width="1339.000000pt" height="1339.000000pt" viewBox="0 0 1339.000000 1339.000000"
 preserveAspectRatio="xMidYMid meet">
<metadata>
Created by potrace 1.11, written by Peter Selinger 2001-2013
</metadata>
<g transform="translate(0.000000,1339.000000) scale(0.100000,-0.100000)"
fill="#000000" stroke="none">
<path d="M6450 12776 c0 -2 9 -6 20 -9 11 -3 20 -1 20 4 0 5 -9 9 -20 9 -11 0
-20 -2 -20 -4z"/>
<path d="M6532 12774 c4 -3 21 -8 39 -11 53 -8 148 -63 110 -63 -6 0 -11 -4
-11 -10 0 -5 6 -10 14 -10 18 0 46 -27 46 -45 0 -7 -14 -18 -31 -24 -40 -14
-39 -14 -34 8 3 14 -1 18 -11 14 -9 -3 -12 -12 -8 -25 5 -16 2 -19 -13 -16
-10 2 -17 9 -16 15 1 6 -9 8 -23 5 -20 -4 -26 0 -31 18 -5 18 -11 21 -38 16
-21 -4 -52 0 -86 13 -41 15 -64 18 -94 11 l-40 -8 35 -1 c59 -2 109 -13 113
-25 3 -8 -19 -10 -77 -8 -53 2 -76 0 -66 -7 8 -5 33 -10 55 -12 22 -2 51 -11
64 -21 13 -10 30 -18 38 -18 8 0 11 -5 7 -12 -4 -7 -3 -8 4 -4 16 9 52 -11 52
-29 0 -18 -20 -19 -75 -4 -53 14 -71 17 -195 34 -58 7 -150 27 -205 43 -55 16
-104 27 -109 24 -10 -6 87 -40 116 -41 9 -1 23 -7 30 -14 20 -19 82 -35 188
-47 52 -6 109 -15 125 -20 17 -4 56 -13 88 -21 32 -7 60 -16 63 -21 8 -12 -36
-10 -98 7 -91 23 -297 45 -433 45 -97 0 -126 3 -123 13 3 7 25 13 54 13 64 2
64 2 64 14 0 5 -17 12 -37 15 -21 3 -55 9 -75 14 l-38 8 5 -34 c6 -46 21 -59
81 -67 28 -3 77 -19 108 -35 43 -22 65 -28 91 -24 19 3 40 1 47 -4 7 -6 49
-16 93 -23 44 -8 102 -22 129 -31 27 -10 53 -16 57 -13 5 3 25 -4 46 -15 21
-10 63 -30 93 -42 65 -27 65 -27 57 -35 -3 -3 -20 1 -39 9 -44 19 -86 34 -123
42 -16 4 -37 13 -45 20 -14 13 -111 33 -155 33 -27 -1 -187 12 -259 20 -59 7
-91 31 -44 33 35 2 -47 19 -117 24 -32 3 -64 10 -69 15 -6 6 -18 10 -29 10
-16 0 -15 -4 10 -30 27 -29 59 -38 79 -22 5 5 25 3 44 -4 l35 -13 -30 -1 c-16
-1 -43 -3 -60 -4 -38 -4 -88 16 -106 41 -19 26 -106 48 -125 32 -8 -7 -13 -17
-11 -22 4 -14 144 -62 247 -85 25 -6 54 -14 65 -17 16 -5 17 -5 5 4 -8 5 -11
13 -8 17 10 9 40 -4 34 -15 -7 -10 28 -20 115 -34 31 -5 82 -37 58 -37 -36 0
-187 22 -217 31 -18 6 -56 14 -85 19 -29 4 -60 11 -71 15 -16 7 -17 6 -7 -13
15 -28 14 -32 -9 -32 -15 0 -20 7 -20 25 0 20 -5 25 -25 25 -14 0 -25 4 -25 8
0 5 -6 9 -12 10 -7 0 -31 4 -52 8 -48 9 -43 -7 10 -32 35 -17 41 -36 13 -42
-9 -1 -31 8 -50 21 -19 12 -43 26 -53 30 -17 7 -17 6 -5 -10 12 -15 12 -16 -3
-10 -12 4 -18 1 -18 -9 0 -22 -56 -8 -89 22 -40 37 -55 29 -26 -13 18 -25 100
-53 136 -46 18 3 28 0 32 -11 4 -10 1 -16 -8 -16 -8 0 -15 -5 -15 -11 0 -13
-55 -5 -96 15 -41 20 -84 28 -84 17 0 -6 7 -14 16 -19 9 -5 14 -14 10 -21 -5
-8 -12 -7 -22 4 -9 8 -22 15 -30 15 -8 0 -14 6 -14 13 -1 16 -35 57 -50 57 -6
0 -10 -8 -8 -17 3 -19 -3 -20 -112 -26 -30 -1 -49 3 -57 13 -8 9 -12 11 -13 3
0 -6 11 -20 25 -31 14 -11 25 -23 25 -26 0 -3 -11 -6 -25 -6 -15 0 -25 6 -25
14 0 9 -10 13 -32 10 -18 -1 -42 -3 -53 -4 -19 0 -18 -2 5 -19 20 -16 22 -21
11 -35 -9 -11 -22 -14 -40 -10 -24 5 -24 5 7 -15 37 -24 49 -26 54 -10 6 19
78 -11 78 -33 0 -13 -8 -18 -30 -18 -16 0 -30 -4 -30 -10 0 -5 -4 -10 -10 -10
-5 0 -9 5 -7 11 1 6 -4 14 -12 17 -10 3 -12 0 -8 -11 7 -20 -20 -30 -59 -23
-15 3 -33 1 -40 -5 -7 -6 -21 -9 -31 -7 -10 1 -19 -2 -20 -7 -3 -11 46 -13 95
-2 27 5 32 4 32 -12 0 -15 -11 -21 -47 -28 -53 -9 -66 -34 -22 -43 18 -3 25
-11 23 -22 -1 -10 3 -18 9 -18 7 0 1 -9 -12 -19 l-24 -18 29 -6 c16 -3 47 -12
69 -21 40 -15 40 -15 10 -17 -16 -1 -49 -1 -72 0 -30 2 -50 -4 -72 -20 -17
-13 -31 -26 -31 -31 0 -15 80 -9 86 6 4 11 27 14 92 15 98 1 105 -17 8 -23
-31 -1 -62 -8 -68 -14 -9 -9 -9 -12 0 -12 27 0 10 -20 -22 -26 -38 -7 -90 -54
-68 -61 6 -3 12 -11 12 -19 0 -16 36 -19 45 -4 9 15 48 12 73 -5 23 -17 92
-12 92 6 0 13 47 11 55 -2 11 -17 -4 -24 -25 -11 -16 10 -20 10 -20 0 -1 -7
-23 -24 -50 -37 -28 -13 -50 -28 -50 -33 0 -4 42 -8 93 -8 52 0 97 -3 100 -6
8 -8 -120 -74 -144 -74 -10 0 -20 6 -22 13 -4 7 -8 3 -12 -10 -5 -16 -16 -23
-44 -25 -32 -3 -36 -6 -34 -30 2 -26 0 -27 -67 -34 -80 -8 -101 -17 -82 -36
11 -11 15 -10 23 5 15 26 29 11 16 -18 -7 -13 -22 -27 -34 -30 -13 -3 -23 -10
-23 -15 0 -5 -13 -7 -29 -4 -23 5 -32 2 -40 -14 -14 -25 -14 -35 -1 -27 5 3
17 -6 26 -20 9 -14 22 -25 29 -25 18 0 44 -74 28 -76 -8 -1 -42 -14 -55 -21
-5 -2 -8 3 -8 11 0 9 9 16 20 16 11 0 20 5 20 10 0 6 -9 10 -20 10 -28 0 -74
-44 -67 -63 3 -9 1 -18 -6 -21 -7 -2 -2 -5 10 -5 20 -1 21 -4 13 -27 -13 -34
-13 -33 13 -26 20 5 21 4 7 -14 -8 -10 -22 -24 -30 -31 -13 -11 -13 -12 3 -13
9 0 17 5 17 10 0 6 5 10 11 10 17 0 66 57 73 84 3 14 15 28 26 31 12 4 19 14
18 23 -2 13 3 16 20 14 13 -2 35 5 50 15 15 10 36 20 47 23 10 3 22 17 25 30
5 19 12 24 28 22 15 -2 22 2 22 13 0 14 6 16 38 10 39 -8 110 -7 124 1 15 10
-2 22 -22 17 -12 -3 -20 0 -20 7 0 9 14 11 51 8 28 -3 45 -2 38 3 -33 20 16
26 163 19 50 -2 74 1 92 14 20 12 44 15 111 13 67 -3 88 0 94 11 6 11 32 14
107 14 62 0 110 5 129 14 17 7 72 21 124 30 102 17 178 12 188 -12 7 -20 40
-18 52 4 9 15 10 15 11 -5 0 -26 12 -28 91 -12 57 11 107 19 149 24 14 1 32 5
40 8 8 3 49 7 92 10 63 3 79 1 91 -13 12 -15 33 -16 173 -12 87 3 161 8 164
13 8 11 310 4 342 -9 14 -6 29 -16 33 -21 10 -17 25 -13 25 6 0 14 3 13 20 -5
19 -20 27 -21 78 -16 31 4 59 10 62 13 8 9 123 7 138 -3 23 -14 164 -10 173 6
7 10 9 9 9 -4 0 -11 5 -15 15 -12 9 4 16 -3 21 -20 9 -36 22 -32 30 8 7 41 38
53 80 31 16 -8 36 -15 45 -15 9 0 24 -9 34 -20 17 -19 17 -20 0 -20 -15 0 -16
-3 -7 -12 7 -7 39 -14 70 -15 122 -3 116 -2 102 -18 -10 -12 -7 -16 16 -26 16
-5 38 -19 49 -29 11 -10 25 -19 30 -19 13 -1 69 -47 108 -89 21 -22 37 -30 49
-26 17 5 22 -4 19 -32 -1 -6 11 -17 26 -25 16 -8 32 -20 36 -26 4 -7 22 -20
40 -30 42 -21 58 -43 52 -69 -3 -13 4 -32 16 -48 11 -14 19 -32 16 -39 -2 -6
2 -18 10 -25 7 -7 13 -24 13 -38 0 -19 5 -24 24 -24 19 0 22 -4 18 -25 -3 -20
0 -25 15 -25 10 0 24 5 30 11 9 9 14 5 19 -17 4 -16 20 -45 36 -64 44 -54 45
-55 41 -67 -2 -6 5 -16 16 -22 11 -6 19 -19 19 -29 0 -9 13 -54 30 -99 16 -45
28 -83 26 -86 -8 -8 15 -140 26 -147 5 -3 12 -39 15 -79 3 -40 9 -80 14 -90
13 -23 15 -168 3 -206 -11 -36 -5 -379 8 -445 18 -92 43 -185 53 -199 6 -7 12
-20 13 -29 2 -9 7 -25 12 -37 19 -42 33 -95 27 -104 -6 -11 33 -101 44 -101
11 0 45 -102 47 -140 1 -19 7 -54 13 -77 7 -27 8 -51 1 -67 -6 -18 -5 -28 5
-36 9 -8 14 -31 13 -68 -1 -77 -1 -78 21 -78 15 0 20 10 24 56 4 30 17 87 30
125 22 65 26 70 54 73 23 2 34 10 43 33 7 16 18 29 25 29 6 0 20 9 30 20 9 10
38 26 64 35 25 9 57 22 71 30 21 12 22 14 6 15 -14 0 -17 5 -12 24 3 12 8 41
12 62 3 21 13 47 21 56 9 10 16 32 15 49 0 19 10 46 29 71 16 23 29 51 29 63
0 42 13 85 25 85 14 0 24 54 29 160 2 41 7 94 11 118 6 35 10 41 21 31 11 -9
14 -3 14 32 0 24 1 58 2 74 3 54 -20 194 -34 212 -6 7 -4 22 6 42 9 16 16 38
16 47 0 22 -33 117 -43 125 -4 3 -5 13 -1 22 7 19 -11 107 -32 154 -20 44 -27
132 -11 138 13 6 11 92 -3 110 -5 6 -7 28 -5 50 1 22 -4 59 -12 83 -7 23 -11
47 -8 52 3 5 1 11 -5 15 -5 3 -10 14 -10 23 0 10 -9 25 -20 35 -24 20 -27 67
-4 67 22 0 12 21 -14 31 -19 7 -24 4 -33 -18 -5 -15 -8 -32 -5 -40 7 -16 -1
-17 -18 -1 -7 7 -11 22 -8 34 2 13 -3 37 -12 55 -9 18 -16 38 -16 44 0 7 -7
18 -15 25 -8 7 -14 22 -14 34 1 66 -32 146 -60 146 -6 0 -11 9 -11 21 0 24
-30 79 -43 79 -5 0 -6 -8 -2 -17 23 -62 13 -96 -17 -54 -10 14 -24 19 -53 18
-23 -1 -40 3 -43 11 -2 7 5 13 17 13 38 3 42 4 51 19 15 23 12 33 -10 27 -16
-4 -18 -1 -13 24 3 18 1 29 -6 29 -6 0 -11 9 -11 19 0 17 -5 19 -47 14 -27 -2
-50 -9 -51 -14 -2 -5 -8 -7 -13 -3 -14 8 9 44 36 54 16 6 23 16 21 34 0 14 -6
26 -13 26 -7 0 -17 9 -24 21 -9 18 -6 26 22 55 36 37 33 54 -6 36 -33 -15 -35
-15 -35 3 0 18 -27 20 -33 3 -2 -7 -8 -10 -12 -6 -4 4 2 19 13 35 12 17 20 45
20 74 l1 46 -39 -1 c-27 0 -40 -6 -43 -17 -4 -16 -62 -51 -70 -42 -3 2 4 21
15 42 19 36 19 38 1 80 -13 32 -22 41 -36 37 -12 -3 -21 3 -27 19 -14 37 -31
41 -24 5 7 -30 6 -31 -20 -19 -21 10 -27 21 -32 61 -4 26 -11 48 -17 48 -5 0
-7 -13 -4 -29 5 -25 3 -30 -18 -33 -30 -6 -35 -2 -35 33 0 21 -4 27 -15 23
-10 -4 -15 0 -15 10 0 10 -7 16 -17 14 -12 -2 -20 10 -30 52 -8 30 -18 57 -22
60 -5 3 -11 15 -15 27 -4 12 -17 23 -29 25 -12 2 -21 9 -19 16 1 6 -6 20 -15
30 -10 9 -26 29 -35 42 -17 25 -17 25 -17 3 -1 -12 4 -25 9 -28 7 -4 7 -13 0
-26 -7 -13 -7 -25 0 -38 15 -29 12 -41 -10 -41 -15 0 -20 7 -20 25 0 14 -4 25
-9 25 -12 0 -23 -29 -15 -41 3 -5 1 -9 -5 -9 -5 0 -12 9 -16 19 -3 10 -15 21
-26 24 -12 3 -18 10 -14 16 3 6 1 11 -5 11 -5 0 -17 15 -26 33 -18 37 -49 61
-66 51 -7 -5 -3 -10 10 -15 27 -10 29 -45 3 -59 -29 -15 -34 -13 -27 15 5 18
2 25 -8 25 -7 0 -21 11 -29 24 -11 16 -30 26 -56 31 -22 4 -45 13 -52 21 -6 8
-16 14 -21 14 -5 0 -16 7 -25 15 -8 9 -17 14 -20 11 -8 -7 36 -46 52 -46 20 0
38 -47 30 -77 -6 -24 -34 -32 -36 -10 0 6 -4 3 -9 -8 -6 -14 -9 -15 -9 -5 -1
8 -11 20 -23 25 -13 6 -23 19 -23 30 0 13 -9 22 -25 25 -14 3 -58 22 -97 41
-77 38 -89 38 -48 -1 32 -30 32 -46 -1 -53 -18 -3 -35 3 -58 22 -53 45 -110
86 -138 100 -16 8 -28 18 -28 23 0 4 -13 8 -30 8 -16 0 -30 4 -30 9 0 5 -23
11 -51 13 -27 3 -55 10 -61 16 -8 8 -5 9 11 5 28 -7 29 23 0 32 -11 4 -22 5
-23 3 -1 -1 -13 -18 -25 -36 -26 -37 -52 -31 -32 6 6 11 11 23 11 25 0 9 -59
29 -69 23 -5 -4 -14 1 -19 11 -7 11 -23 17 -49 18 -25 1 -51 10 -74 27 -18 14
-64 40 -101 58 -38 17 -68 36 -68 41 0 6 6 7 13 3 9 -6 9 -4 -1 7 -9 9 -15 10
-23 2 -8 -8 -8 -13 0 -17 17 -11 13 -36 -6 -37 -12 0 -10 -3 7 -9 44 -14 106
-48 120 -65 8 -10 37 -27 65 -40 28 -12 64 -34 79 -49 16 -14 33 -26 37 -26 5
0 9 -4 9 -10 0 -14 -33 -13 -48 2 -9 9 -12 9 -12 -1 0 -6 13 -17 29 -22 35
-12 72 -59 46 -59 -8 0 -38 18 -67 40 -29 22 -58 40 -65 40 -7 0 -17 9 -23 20
-6 11 -18 20 -27 20 -8 0 -30 12 -48 28 -17 15 -47 36 -66 47 -18 11 -45 27
-59 35 -24 15 -89 40 -103 40 -4 0 -7 -4 -7 -10 0 -5 5 -10 10 -10 6 0 20 -9
32 -19 l20 -20 -36 2 c-24 1 -35 6 -31 15 3 8 -6 12 -29 12 -18 0 -50 9 -72
19 -21 11 -43 17 -48 14 -5 -4 -6 -2 -3 3 3 6 -3 15 -14 22 -16 10 -21 10 -25
-3 -4 -8 -15 -15 -26 -15 -10 0 -17 4 -14 9 3 4 -5 6 -18 4 -13 -3 -34 1 -47
8 -13 7 -27 13 -31 14 -7 0 -10 9 -7 18 7 22 3 44 -8 40 -7 -3 -32 4 -56 15
-73 35 -286 88 -265 66z m248 -90 c24 -14 24 -14 -15 -8 -55 9 -80 23 -40 23
17 0 41 -6 55 -15z m-2 -97 c2 -12 -3 -17 -17 -17 -12 0 -21 6 -21 13 0 31 32
34 38 4z m-868 -27 c0 -5 -7 -10 -16 -10 -8 0 -12 5 -9 10 3 6 10 10 16 10 5
0 9 -4 9 -10z m1395 -40 c-3 -5 -14 -10 -23 -10 -15 0 -15 2 -2 10 20 13 33
13 25 0z m43 -22 c-6 -18 -28 -21 -28 -4 0 9 7 16 16 16 9 0 14 -5 12 -12z
m-707 -59 c32 -16 12 -29 -21 -12 -17 8 -30 16 -30 19 0 8 31 4 51 -7z m69
-24 c11 -13 8 -15 -14 -15 -25 0 -33 10 -19 23 10 11 19 8 33 -8z m-990 -115
c0 -5 -2 -10 -4 -10 -3 0 -8 5 -11 10 -3 6 -1 10 4 10 6 0 11 -4 11 -10z
m2260 -6 c0 -17 -22 -14 -28 4 -2 7 3 12 12 12 9 0 16 -7 16 -16z m-2783 -30
c-3 -3 -12 -4 -19 -1 -8 3 -5 6 6 6 11 1 17 -2 13 -5z m1518 -4 c3 -5 -1 -10
-9 -10 -9 0 -16 5 -16 10 0 6 4 10 9 10 6 0 13 -4 16 -10z m1295 2 c0 -13 -12
-22 -22 -16 -10 6 -1 24 13 24 5 0 9 -4 9 -8z m-2570 -42 c13 -8 13 -10 -2
-10 -9 0 -20 5 -23 10 -8 13 5 13 25 0z m137 4 c-3 -3 -12 -4 -19 -1 -8 3 -5
6 6 6 11 1 17 -2 13 -5z m1083 -19 c32 -18 5 -19 -35 0 -23 10 -25 13 -10 14
11 0 31 -6 45 -14z m1250 -9 c0 -8 -7 -16 -15 -20 -17 -6 -20 -42 -5 -51 15
-9 12 -25 -4 -19 -22 9 -28 34 -15 71 10 32 39 47 39 19z m590 -40 c0 -8 -6
-19 -14 -25 -18 -15 -31 15 -15 35 13 16 29 10 29 -10z m-2945 4 c3 -5 -3 -10
-14 -10 -12 0 -21 5 -21 10 0 6 6 10 14 10 8 0 18 -4 21 -10z m166 -13 c-13
-13 -26 -3 -16 12 3 6 11 8 17 5 6 -4 6 -10 -1 -17z m1209 3 c0 -5 -2 -10 -4
-10 -3 0 -8 5 -11 10 -3 6 -1 10 4 10 6 0 11 -4 11 -10z m-1694 -38 c6 -4 8
-15 5 -26 -7 -17 -9 -16 -24 8 -17 26 -7 36 19 18z m70 -53 c3 -6 0 -15 -7
-20 -22 -14 -29 -11 -29 11 0 21 24 27 36 9z m61 -25 c-3 -3 -12 -4 -19 -1 -8
3 -5 6 6 6 11 1 17 -2 13 -5z m-172 -24 c-3 -5 -13 -10 -21 -10 -8 0 -14 5
-14 10 0 6 9 10 21 10 11 0 17 -4 14 -10z m3652 -6 c-3 -3 -12 -4 -19 -1 -8 3
-5 6 6 6 11 1 17 -2 13 -5z m33 -14 c0 -5 -4 -10 -10 -10 -5 0 -10 5 -10 10 0
6 5 10 10 10 6 0 10 -4 10 -10z m-3240 -20 c0 -5 -7 -7 -15 -4 -8 4 -15 8 -15
10 0 2 7 4 15 4 8 0 15 -4 15 -10z m3270 0 c0 -5 -4 -10 -10 -10 -5 0 -10 5
-10 10 0 6 5 10 10 10 6 0 10 -4 10 -10z m-3741 -14 c-12 -10 -49 -16 -49 -7
0 5 10 11 23 13 22 4 34 1 26 -6z m56 4 c3 -5 -1 -10 -10 -10 -9 0 -13 5 -10
10 3 6 8 10 10 10 2 0 7 -4 10 -10z m-115 -24 c0 -18 -30 -30 -43 -17 -5 5 -6
14 -3 20 10 16 46 13 46 -3z m-79 -19 c-1 -12 -15 -9 -19 4 -3 6 1 10 8 8 6
-3 11 -8 11 -12z m69 -37 c0 -5 -4 -10 -10 -10 -5 0 -10 5 -10 10 0 6 5 10 10
10 6 0 10 -4 10 -10z m123 -27 c-13 -2 -33 -2 -45 0 -13 2 -3 4 22 4 25 0 35
-2 23 -4z m3801 -98 c-10 -8 -23 -14 -29 -14 -5 0 -1 6 9 14 11 8 24 15 30 15
5 0 1 -7 -10 -15z m-3919 -5 c3 -5 1 -10 -4 -10 -6 0 -11 5 -11 10 0 6 2 10 4
10 3 0 8 -4 11 -10z m4257 -112 c-15 -15 -26 -4 -18 18 5 13 9 15 18 6 9 -9 9
-15 0 -24z m-52 3 c0 -6 -4 -13 -10 -16 -5 -3 -10 1 -10 9 0 9 5 16 10 16 6 0
10 -4 10 -9z m-4030 -25 c0 -17 -38 -28 -46 -14 -7 11 13 28 34 28 6 0 12 -6
12 -14z m3894 -5 c3 -5 -4 -11 -16 -14 -25 -7 -33 -3 -23 12 8 13 32 14 39 2z
m47 -58 c12 -15 12 -16 -4 -10 -10 4 -25 7 -33 7 -8 0 -14 5 -14 10 0 16 36
11 51 -7z m56 -9 c-9 -9 -28 6 -21 18 4 6 10 6 17 -1 6 -6 8 -13 4 -17z m63
-27 c0 -7 9 -23 20 -35 22 -23 26 -42 10 -42 -5 0 -10 4 -10 9 0 5 -11 11 -25
13 -14 2 -24 6 -23 9 2 4 -5 16 -15 26 -9 11 -14 23 -10 26 12 12 53 7 53 -6z
m-4360 -57 c0 -5 -4 -10 -10 -10 -5 0 -10 5 -10 10 0 6 5 10 10 10 6 0 10 -4
10 -10z m-40 -49 c0 -12 -29 -23 -41 -15 -5 3 -7 10 -4 15 8 12 45 12 45 0z
m444 3 c9 -3 16 -10 16 -16 0 -14 -43 -5 -48 10 -4 13 7 15 32 6z m-9 -53 c-3
-6 -15 -8 -27 -6 -34 7 -34 15 1 15 18 0 30 -4 26 -9z m-485 -11 c0 -5 -8 -10
-17 -10 -15 0 -16 2 -3 10 19 12 20 12 20 0z m245 -50 c-3 -5 -12 -7 -20 -3
-21 7 -19 13 6 13 11 0 18 -4 14 -10z m-355 -194 c0 -17 -24 -38 -33 -29 -15
15 -6 43 13 43 11 0 20 -6 20 -14z m4810 -58 c0 -8 -40 -32 -44 -26 -1 2 -7
10 -14 20 -11 14 -9 16 23 15 19 -1 35 -4 35 -9z m238 -343 c8 -27 21 -54 29
-60 17 -13 14 -57 -5 -63 -7 -2 -12 0 -10 5 5 19 -14 83 -25 83 -7 0 -14 12
-15 27 -1 15 -7 32 -12 37 -15 15 -12 28 7 24 11 -2 22 -21 31 -53z"/>
<path d="M6490 12698 c19 -5 45 -14 57 -19 26 -10 41 5 15 16 -9 4 -37 9 -62
10 l-45 3 35 -10z"/>
<path d="M7070 12692 c0 -8 135 -72 151 -72 14 0 11 8 -10 29 -10 10 -44 26
-74 35 -63 18 -67 19 -67 8z"/>
<path d="M7261 12681 c13 -11 26 -17 28 -15 5 5 -30 33 -43 34 -4 0 2 -9 15
-19z"/>
<path d="M6597 12669 c7 -7 15 -10 18 -7 3 3 -2 9 -12 12 -14 6 -15 5 -6 -5z"/>
<path d="M6088 12623 c7 -3 16 -2 19 1 4 3 -2 6 -13 5 -11 0 -14 -3 -6 -6z"/>
<path d="M6294 12583 c10 -11 37 -12 30 -2 -3 5 -12 9 -21 9 -9 0 -13 -3 -9
-7z"/>
<path d="M5800 12530 c-9 -17 -7 -22 15 -30 33 -13 45 -13 45 0 0 6 -6 10 -14
10 -21 0 -31 21 -15 31 11 7 10 9 -3 9 -10 0 -22 -9 -28 -20z"/>
<path d="M6038 12543 c7 -3 16 -2 19 1 4 3 -2 6 -13 5 -11 0 -14 -3 -6 -6z"/>
<path d="M5720 12530 c0 -5 7 -7 15 -4 8 4 15 8 15 10 0 2 -7 4 -15 4 -8 0
-15 -4 -15 -10z"/>
<path d="M5610 12502 c-8 -4 -16 -15 -18 -25 -3 -16 0 -15 22 4 34 30 33 37
-4 21z"/>
<path d="M7725 12490 c3 -5 10 -10 16 -10 5 0 9 5 9 10 0 6 -7 10 -16 10 -8 0
-12 -4 -9 -10z"/>
<path d="M5266 12396 c5 -13 63 -31 72 -22 9 9 -11 27 -24 22 -7 -3 -16 -1
-19 4 -10 15 -35 12 -29 -4z"/>
<path d="M5240 12350 c0 -5 5 -10 11 -10 5 0 7 5 4 10 -3 6 -8 10 -11 10 -2 0
-4 -4 -4 -10z"/>
<path d="M8476 12316 c3 -9 11 -16 16 -16 13 0 5 23 -10 28 -7 2 -10 -2 -6
-12z"/>
<path d="M8721 12254 c0 -11 3 -14 6 -6 3 7 2 16 -1 19 -3 4 -6 -2 -5 -13z"/>
<path d="M9205 11921 c-3 -5 -1 -12 5 -16 5 -3 10 1 10 9 0 18 -6 21 -15 7z"/>
<path d="M4810 11670 c-6 -11 -20 -20 -31 -20 -14 0 -18 -4 -12 -12 4 -7 6
-21 5 -30 -2 -13 1 -16 12 -12 9 3 16 15 16 25 0 14 7 19 26 19 14 0 35 5 46
11 21 11 21 12 -3 25 -33 19 -47 17 -59 -6z"/>
<path d="M4870 11629 c0 -5 10 -9 22 -9 12 0 18 3 14 7 -10 11 -36 12 -36 2z"/>
<path d="M4990 11631 c0 -6 5 -13 10 -16 6 -3 10 1 10 9 0 9 -4 16 -10 16 -5
0 -10 -4 -10 -9z"/>
<path d="M4934 11585 c-10 -8 -14 -14 -9 -15 15 0 40 18 34 24 -3 3 -14 -1
-25 -9z"/>
<path d="M9490 11589 c0 -5 5 -7 10 -4 6 3 10 8 10 11 0 2 -4 4 -10 4 -5 0
-10 -5 -10 -11z"/>
<path d="M4900 11515 c-23 -13 -23 -15 -4 -15 11 0 25 5 32 12 9 9 15 9 24 0
15 -15 54 -16 63 -2 3 6 -3 10 -13 10 -11 0 -32 2 -48 4 -16 3 -40 -2 -54 -9z"/>
<path d="M4895 11460 c-8 -13 15 -13 35 0 12 8 11 10 -7 10 -12 0 -25 -4 -28
-10z"/>
<path d="M6296 11379 c2 -4 -4 -12 -13 -18 -16 -9 -15 -10 8 -11 15 0 32 6 38
14 9 11 6 15 -13 18 -14 3 -23 2 -20 -3z"/>
<path d="M8138 11362 c-16 -2 -28 -7 -28 -12 0 -10 62 -20 77 -11 19 10 -17
27 -49 23z"/>
<path d="M9540 11340 c0 -5 5 -10 10 -10 6 0 10 5 10 10 0 6 -4 10 -10 10 -5
0 -10 -4 -10 -10z"/>
<path d="M5700 11300 c0 -5 7 -10 16 -10 8 0 12 5 9 10 -3 6 -10 10 -16 10 -5
0 -9 -4 -9 -10z"/>
<path d="M4676 11221 c-3 -5 -18 -12 -33 -16 -30 -7 -69 -42 -59 -52 3 -4 14
1 23 9 10 8 33 20 51 28 17 7 32 19 32 26 0 16 -6 18 -14 5z"/>
<path d="M4575 11120 c-3 -5 -1 -10 4 -10 6 0 11 5 11 10 0 6 -2 10 -4 10 -3
0 -8 -4 -11 -10z"/>
<path d="M4360 11000 c0 -5 5 -10 11 -10 5 0 7 5 4 10 -3 6 -8 10 -11 10 -2 0
-4 -4 -4 -10z"/>
<path d="M9766 10986 c19 -26 34 -33 34 -17 0 5 -12 16 -26 26 l-27 17 19 -26z"/>
<path d="M4330 10950 c-8 -5 -11 -12 -7 -16 4 -4 13 -2 19 4 15 15 7 24 -12
12z"/>
<path d="M4594 10945 c3 -9 0 -18 -8 -21 -17 -6 -17 -34 1 -34 7 0 13 3 13 8
0 4 14 13 30 20 42 19 39 42 -6 42 -28 0 -35 -3 -30 -15z"/>
<path d="M4635 10909 c-12 -18 3 -22 20 -5 14 14 14 16 1 16 -8 0 -18 -5 -21
-11z"/>
<path d="M4440 10881 c0 -5 -7 -17 -16 -26 -14 -13 -19 -14 -25 -3 -7 10 -9 9
-9 -4 0 -11 8 -18 20 -18 11 0 20 5 20 10 0 6 11 15 25 20 30 11 33 30 5 30
-11 0 -20 -4 -20 -9z"/>
<path d="M4280 10868 c0 -6 -8 -21 -19 -32 -10 -12 -21 -35 -24 -53 l-6 -31
38 37 c31 30 38 43 34 65 -5 26 -23 37 -23 14z"/>
<path d="M4560 10853 c0 -13 -4 -23 -10 -23 -5 0 -10 -7 -10 -15 0 -9 -6 -18
-14 -21 -8 -3 -12 -12 -10 -19 3 -7 -9 -23 -26 -35 -17 -12 -29 -24 -27 -26
10 -10 74 25 109 59 33 33 37 41 25 50 -8 7 -19 21 -25 32 -11 19 -11 19 -12
-2z"/>
<path d="M9870 10820 c0 -5 5 -10 11 -10 5 0 7 5 4 10 -3 6 -8 10 -11 10 -2 0
-4 -4 -4 -10z"/>
<path d="M4344 10460 c-26 -10 -38 -26 -25 -34 5 -4 22 5 38 19 29 25 24 30
-13 15z"/>
<path d="M4288 10392 c-16 -7 -28 -20 -28 -28 0 -7 -4 -14 -9 -14 -8 0 -27
-42 -29 -63 0 -5 -8 -14 -18 -21 -20 -15 -11 -56 12 -56 11 0 13 6 9 20 -5 14
4 30 29 57 20 21 38 50 41 65 4 15 13 28 20 30 8 2 11 8 7 13 -5 8 -16 7 -34
-3z"/>
<path d="M4363 10237 c-4 -8 -24 -22 -44 -31 -27 -13 -38 -25 -43 -48 -5 -27
-28 -84 -57 -140 -5 -10 -9 -25 -9 -33 0 -9 -6 -26 -14 -38 -26 -40 -64 -171
-70 -239 -4 -52 -1 -82 14 -129 11 -34 20 -78 20 -99 0 -34 2 -37 25 -32 18 3
25 0 25 -12 0 -9 -8 -20 -17 -23 -15 -6 -14 -8 7 -13 28 -7 35 -36 8 -34 -10
1 -18 -2 -18 -7 0 -5 5 -9 12 -9 9 0 9 -3 0 -12 -20 -20 -14 -38 16 -50 21 -9
23 -12 10 -15 -24 -6 -23 -19 1 -26 11 -3 27 -21 35 -41 8 -20 19 -36 24 -36
13 0 23 27 16 45 -4 10 0 15 15 15 18 0 21 -6 21 -48 0 -26 5 -53 11 -59 17
-17 39 -148 33 -202 -2 -27 0 -59 5 -72 9 -22 10 -22 10 -4 1 15 8 21 24 20
12 0 22 4 22 10 0 5 -9 8 -20 6 -19 -3 -19 -2 3 19 15 15 22 32 22 60 0 27 5
42 18 49 16 9 16 10 0 16 -23 9 -23 24 -1 40 15 11 15 13 -5 19 -27 9 -27 16
-4 42 23 25 22 55 -3 64 -18 7 -19 8 -2 15 22 9 22 31 0 39 -12 5 -14 9 -5 18
15 15 16 95 1 104 -6 3 -8 17 -5 29 3 13 3 36 0 53 -5 23 -10 29 -26 24 -20
-5 -20 3 -1 71 7 27 -6 57 -23 50 -11 -4 -14 4 -14 35 0 23 -5 44 -11 47 -6 5
-3 13 10 22 12 8 21 24 21 35 0 20 -1 20 -19 4 -10 -9 -25 -14 -34 -11 -17 7
-31 45 -16 45 5 0 9 -4 9 -10 0 -5 3 -10 8 -10 4 0 7 46 7 103 l0 102 -29 0
c-38 0 -45 22 -11 35 24 9 25 13 19 47 -3 21 -10 42 -15 48 -12 12 -11 52 1
60 5 3 7 12 4 20 -3 8 9 26 28 44 18 16 30 32 26 36 -3 4 -10 0 -15 -8z m-16
-533 c-3 -3 -12 -4 -19 -1 -8 3 -5 6 6 6 11 1 17 -2 13 -5z m-77 -77 c0 -2 -7
-26 -16 -53 -20 -60 -34 -77 -34 -42 0 15 5 30 10 33 6 3 10 19 10 36 0 19 5
29 15 29 8 0 15 -1 15 -3z m110 -467 c0 -5 -7 -10 -16 -10 -8 0 -12 5 -9 10 3
6 10 10 16 10 5 0 9 -4 9 -10z"/>
<path d="M4145 10080 c-3 -5 -1 -10 4 -10 6 0 11 5 11 10 0 6 -2 10 -4 10 -3
0 -8 -4 -11 -10z"/>
<path d="M8165 9509 c-22 -4 -58 -8 -81 -8 -22 -1 -54 -7 -70 -15 -16 -8 -51
-17 -78 -20 -28 -3 -53 -11 -56 -17 -5 -6 -21 -8 -44 -4 -24 5 -41 3 -52 -6
-9 -7 -45 -14 -81 -16 -35 -1 -78 -9 -95 -18 -17 -8 -36 -15 -43 -15 -6 0 -30
-9 -53 -20 -22 -11 -50 -20 -62 -20 -11 0 -21 -4 -21 -10 -1 -5 -2 -15 -3 -22
0 -6 -11 -12 -23 -13 -24 -2 -73 -31 -73 -44 0 -5 -12 -14 -27 -20 l-28 -11
33 3 c19 2 29 0 24 -5 -5 -5 -28 -9 -50 -10 -38 0 -44 -4 -67 -44 -30 -51 -41
-60 -59 -45 -20 17 -41 -12 -27 -37 6 -11 8 -22 5 -25 -10 -10 49 -47 68 -42
19 7 25 -9 8 -20 -16 -10 -12 -72 6 -90 12 -11 14 -25 10 -48 -4 -18 -7 -42
-6 -55 0 -12 -7 -25 -15 -29 -9 -3 -22 -18 -30 -34 -8 -15 -26 -40 -40 -55
-37 -40 -47 -86 -28 -139 8 -25 18 -45 22 -45 4 0 16 -18 27 -40 10 -22 25
-40 32 -40 6 0 12 -4 12 -9 0 -12 59 -71 71 -71 5 0 9 -5 9 -11 0 -6 6 -9 14
-6 8 3 16 3 18 -1 2 -4 32 -22 66 -40 68 -34 129 -42 138 -18 3 9 12 12 22 9
13 -6 13 -8 -4 -15 -11 -5 14 -6 58 -2 60 4 78 2 85 -9 9 -16 258 -43 294 -32
12 4 24 3 28 -2 9 -14 81 -3 81 12 0 7 -16 16 -35 19 -41 8 -37 26 6 26 24 0
29 4 29 24 0 20 -6 24 -40 30 -24 4 -40 12 -40 20 0 8 -11 17 -25 20 -32 8
-32 23 0 38 13 6 22 14 20 18 -2 4 7 5 20 2 47 -8 117 8 122 29 6 22 33 26 33
4 0 -17 35 -21 45 -5 3 6 17 10 30 10 13 0 31 8 41 18 10 9 27 17 38 18 69 2
75 4 78 27 2 17 8 21 28 18 14 -2 32 -4 40 -5 8 0 24 -9 34 -18 18 -16 21 -16
37 -2 14 13 21 14 41 3 44 -24 235 -40 348 -30 8 1 -10 12 -40 25 -111 47
-127 55 -140 70 -7 9 -21 16 -32 16 -25 0 -58 18 -58 32 0 6 9 8 23 3 149 -46
174 -36 94 37 -31 29 -57 59 -57 65 0 7 -7 10 -17 6 -13 -5 -15 -2 -10 11 5
13 1 19 -13 23 -10 3 -22 13 -25 23 -9 30 -43 53 -80 55 -19 1 -43 9 -53 18
-10 10 -28 17 -40 17 -11 0 -27 7 -36 15 -8 8 -22 15 -30 15 -9 0 -16 4 -16 9
0 4 -46 11 -102 15 -144 9 -198 17 -192 27 3 5 -2 9 -10 9 -9 0 -16 5 -16 11
0 8 -12 9 -37 4 -67 -13 -106 -7 -130 22 -13 14 -23 32 -23 39 0 7 -8 17 -17
23 -14 8 -15 12 -4 25 7 9 22 16 33 16 13 0 18 5 15 13 -4 10 4 12 27 9 20 -2
27 0 18 6 -19 13 11 36 38 29 11 -3 18 -1 15 3 -10 16 80 40 150 39 39 -1 85
2 103 6 19 4 32 3 32 -3 0 -5 17 -7 39 -5 27 3 43 0 55 -12 11 -12 42 -19 97
-24 62 -5 85 -11 95 -25 12 -17 22 -18 91 -11 120 12 200 9 225 -9 22 -16 68
-22 68 -10 0 9 -31 33 -57 44 -13 5 -23 16 -23 24 0 7 -11 17 -24 20 -14 3
-28 15 -31 27 -9 26 -61 76 -89 85 -11 4 -32 14 -46 23 -33 22 -89 41 -121 41
-15 0 -46 7 -69 15 -23 8 -64 15 -91 15 -33 0 -48 4 -46 12 1 7 -19 20 -44 28
-25 9 -54 23 -63 33 -19 18 -38 19 -101 6z m-780 -248 c3 -6 -3 -15 -14 -20
-16 -9 -18 -8 -14 9 6 21 18 26 28 11z m-200 -181 c3 -5 -1 -10 -9 -10 -9 0
-16 5 -16 10 0 6 4 10 9 10 6 0 13 -4 16 -10z m1055 -210 c0 -11 -7 -20 -15
-20 -8 0 -15 5 -15 11 0 7 -10 9 -24 7 -14 -3 -27 0 -29 6 -3 7 12 12 39 14
39 2 44 0 44 -18z m61 -6 c9 -3 17 -16 17 -30 l0 -24 -29 21 c-28 20 -42 57
-16 45 6 -3 19 -9 28 -12z m109 -34 c11 -11 30 -20 43 -20 12 0 35 -7 51 -15
15 -8 32 -15 38 -15 10 0 20 -8 72 -57 50 -47 59 -85 10 -48 -10 8 -27 15 -36
15 -10 0 -18 7 -18 15 0 8 -6 15 -14 15 -7 0 -19 7 -26 15 -7 8 -21 15 -31 15
-21 0 -26 16 -6 23 9 4 9 6 0 6 -6 1 -15 -3 -18 -9 -3 -5 -13 -10 -21 -10 -11
0 -13 6 -9 20 7 22 -13 28 -32 9 -14 -14 -36 -1 -29 17 6 16 -10 19 -19 4 -10
-16 -38 -12 -31 5 3 8 0 15 -7 16 -17 1 24 17 46 18 9 1 26 -8 37 -19z m-112
-174 c-5 -32 -23 -21 -25 15 -3 27 -1 30 13 19 8 -7 14 -23 12 -34z m-224
-107 c-7 -12 -51 -12 -59 0 -6 11 22 19 47 13 10 -2 15 -8 12 -13z m-531 -39
c7 0 8 -3 1 -10 -12 -12 -56 -1 -48 12 3 5 13 7 21 4 8 -3 20 -6 26 -6z"/>
<path d="M8395 9491 c36 -25 45 -26 45 -6 0 8 -6 15 -12 15 -7 0 -24 3 -38 6
-24 6 -23 5 5 -15z"/>
<path d="M8490 9470 c-8 -5 -12 -11 -9 -14 7 -8 49 5 49 15 0 12 -21 11 -40
-1z"/>
<path d="M5006 9371 c-3 -5 1 -11 9 -15 8 -3 15 -1 15 4 0 13 -18 22 -24 11z"/>
<path d="M5176 9351 c-7 -11 12 -27 39 -34 11 -2 -36 -5 -105 -5 -226 0 -209
3 -205 -37 3 -32 1 -35 -23 -35 -15 0 -34 -5 -42 -10 -12 -8 -9 -10 13 -10 29
0 34 -9 16 -27 -18 -18 8 -26 45 -13 25 8 40 8 60 -2 22 -10 29 -9 36 2 7 11
14 12 35 2 33 -15 87 -15 119 0 21 9 29 8 43 -4 10 -9 29 -19 43 -23 14 -4 37
-16 52 -27 15 -10 38 -21 50 -23 12 -3 25 -11 30 -18 4 -8 22 -14 39 -15 17 0
37 -6 42 -11 6 -6 21 -11 34 -11 13 0 23 -4 23 -9 0 -5 12 -11 28 -14 27 -5
85 -47 65 -47 -5 0 -13 3 -17 7 -10 11 -37 12 -30 2 3 -5 0 -25 -7 -44 -11
-30 -17 -35 -45 -35 -18 0 -35 -4 -39 -10 -3 -5 -18 -9 -33 -9 -74 -1 -285
-22 -300 -30 -10 -5 -30 -7 -46 -4 -24 5 -28 3 -23 -11 6 -14 -3 -20 -24 -18
-4 1 -15 -8 -24 -18 -10 -11 -22 -20 -26 -20 -5 0 -22 -13 -37 -30 -16 -16
-37 -30 -46 -30 -14 0 -16 -6 -11 -30 5 -23 3 -30 -9 -30 -10 0 -16 -9 -16
-22 0 -12 -10 -32 -22 -45 -16 -17 -19 -26 -10 -35 21 -21 72 12 112 72 44 69
90 111 156 144 75 37 224 62 224 37 0 -15 -32 -22 -45 -11 -9 8 -15 8 -20 0
-3 -5 -3 -10 1 -10 4 0 -30 -23 -76 -51 -46 -28 -96 -60 -111 -72 -14 -12 -37
-29 -50 -37 -12 -8 -43 -34 -68 -58 -25 -24 -74 -62 -109 -85 -34 -23 -59 -43
-54 -45 7 -2 91 24 136 43 16 7 18 5 13 -8 -11 -29 13 -30 50 -1 30 23 46 27
98 28 36 0 69 -5 77 -12 23 -19 105 -27 123 -12 22 18 215 24 215 6 0 -8 -7
-19 -15 -26 -12 -10 -20 -9 -40 4 -30 20 -66 17 -83 -6 -7 -10 -20 -18 -28
-18 -18 0 -18 -8 0 -26 19 -18 21 -18 47 9 15 15 23 18 26 9 3 -6 9 -9 14 -6
6 3 18 -1 27 -8 9 -8 43 -23 75 -32 34 -11 57 -24 57 -32 0 -8 -4 -14 -9 -14
-5 0 -14 -13 -21 -30 -7 -16 -19 -30 -26 -30 -8 0 -14 -4 -14 -10 0 -5 9 -10
21 -10 14 0 19 -5 16 -14 -3 -8 2 -17 11 -21 9 -3 18 -1 20 4 5 14 162 15 162
1 0 -5 -9 -10 -20 -10 -11 0 -20 -4 -20 -10 0 -15 37 -12 43 4 3 8 19 17 35
21 17 3 38 15 47 25 9 10 31 22 49 26 17 3 39 13 48 21 10 9 26 13 38 10 11
-3 20 -1 20 3 0 5 18 11 40 15 28 5 40 12 40 24 0 9 10 25 22 35 l21 19 -44
14 c-75 26 -74 61 1 48 30 -5 44 -13 47 -26 7 -24 33 -25 33 -2 0 13 3 14 12
5 19 -19 37 -14 66 16 25 24 27 32 22 81 -3 30 -11 56 -16 58 -6 2 -9 15 -6
28 3 17 0 25 -10 25 -16 0 -43 55 -53 107 -4 18 -14 37 -23 43 -15 8 -14 9 5
10 16 0 29 12 43 40 11 22 24 40 28 40 10 0 32 50 32 71 0 10 5 21 10 24 6 3
10 12 10 20 0 16 -44 67 -52 60 -3 -3 -13 4 -23 15 -10 11 -24 20 -32 20 -7 0
-13 11 -13 26 0 14 -4 23 -9 20 -5 -3 -22 1 -37 9 -16 8 -36 15 -44 14 -10 0
-11 -2 -2 -6 14 -5 17 -33 3 -33 -6 0 -12 4 -15 9 -3 5 -27 12 -52 16 -26 3
-56 10 -68 15 -11 5 -30 11 -41 15 -14 4 -16 8 -7 14 8 5 -10 12 -45 20 -32 7
-67 16 -78 20 -42 18 -125 32 -145 26 -13 -4 -31 0 -46 10 -14 9 -44 17 -67
18 -23 0 -47 6 -54 13 -7 6 -41 12 -76 12 -35 0 -73 5 -85 11 -25 13 -108 15
-116 2z m949 -241 c3 -5 1 -10 -4 -10 -6 0 -11 5 -11 10 0 6 2 10 4 10 3 0 8
-4 11 -10z m-459 -118 c-10 -2 -22 0 -28 6 -6 6 0 7 19 4 21 -5 23 -7 9 -10z
m-259 -158 c-3 -3 -12 -4 -19 -1 -8 3 -5 6 6 6 11 1 17 -2 13 -5z m-146 -241
c15 -40 11 -51 -16 -45 -14 2 -25 8 -25 12 0 4 -12 12 -26 19 -25 11 -25 13
-10 30 22 25 65 16 77 -16z m525 26 c9 -15 -11 -33 -30 -26 -9 4 -13 13 -10
22 7 17 30 20 40 4z m-156 -119 c0 -5 -7 -10 -15 -10 -8 0 -15 5 -15 10 0 6 7
10 15 10 8 0 15 -4 15 -10z m47 -62 c-3 -8 -6 -5 -6 6 -1 11 2 17 5 13 3 -3 4
-12 1 -19z m-27 -154 c0 -8 -4 -14 -10 -14 -5 0 -10 9 -10 21 0 11 5 17 10 14
6 -3 10 -13 10 -21z"/>
<path d="M5058 9343 c6 -2 18 -2 25 0 6 3 1 5 -13 5 -14 0 -19 -2 -12 -5z"/>
<path d="M4860 9310 c0 -5 5 -10 11 -10 5 0 7 5 4 10 -3 6 -8 10 -11 10 -2 0
-4 -4 -4 -10z"/>
<path d="M4756 9139 c-20 -24 -20 -29 0 -29 14 0 44 22 44 33 0 15 -30 12 -44
-4z"/>
<path d="M7118 9153 c7 -3 16 -2 19 1 4 3 -2 6 -13 5 -11 0 -14 -3 -6 -6z"/>
<path d="M8800 9130 c0 -5 19 -10 42 -10 49 0 47 5 -4 14 -24 4 -38 3 -38 -4z"/>
<path d="M8878 9088 c-5 -14 52 -38 90 -38 37 0 25 16 -14 18 -20 2 -43 9 -51
17 -18 18 -20 18 -25 3z"/>
<path d="M7105 9080 c-3 -5 -1 -10 4 -10 6 0 11 5 11 10 0 6 -2 10 -4 10 -3 0
-8 -4 -11 -10z"/>
<path d="M9015 9060 c3 -5 8 -10 11 -10 2 0 4 5 4 10 0 6 -5 10 -11 10 -5 0
-7 -4 -4 -10z"/>
<path d="M4360 8737 c0 -23 18 -43 29 -32 8 8 5 16 -9 28 -13 11 -20 13 -20 4z"/>
<path d="M4400 8671 c0 -6 5 -13 10 -16 6 -3 10 1 10 9 0 9 -4 16 -10 16 -5 0
-10 -4 -10 -9z"/>
<path d="M6240 8440 c0 -5 7 -10 16 -10 8 0 12 5 9 10 -3 6 -10 10 -16 10 -5
0 -9 -4 -9 -10z"/>
<path d="M6160 8415 c0 -13 4 -14 23 -4 33 17 33 19 4 19 -18 0 -27 -5 -27
-15z"/>
<path d="M8160 8379 c0 -5 9 -9 20 -9 11 0 20 2 20 4 0 2 -9 6 -20 9 -11 3
-20 1 -20 -4z"/>
<path d="M9454 8259 c-3 -6 -1 -16 5 -22 8 -8 11 -5 11 11 0 24 -5 28 -16 11z"/>
<path d="M9563 8212 c-11 -15 -23 -38 -27 -50 -9 -27 12 -123 28 -134 21 -14
29 -8 13 10 -21 23 -21 39 -2 58 8 9 15 21 14 27 0 9 -2 8 -6 0 -2 -7 -12 -13
-20 -13 -11 0 -13 5 -8 18 4 9 10 27 12 40 5 20 7 21 17 6 11 -15 14 -15 29 1
21 21 22 51 1 59 -25 9 -29 8 -51 -22z"/>
<path d="M5618 8213 c12 -2 32 -2 45 0 12 2 2 4 -23 4 -25 0 -35 -2 -22 -4z"/>
<path d="M9866 8114 c-11 -30 -6 -37 14 -19 11 10 17 22 14 26 -8 14 -21 11
-28 -7z"/>
<path d="M9861 8023 c0 -12 -4 -30 -7 -40 -5 -14 -4 -15 5 -7 7 6 11 24 8 40
-3 21 -4 23 -6 7z"/>
<path d="M9468 7560 c-13 -49 -17 -105 -8 -120 15 -23 21 8 18 81 -2 45 -5 56
-10 39z"/>
<path d="M9450 7365 c0 -22 -6 -38 -15 -41 -8 -4 -12 -11 -8 -17 3 -6 7 -46 9
-89 2 -72 7 -99 18 -87 8 9 12 269 4 269 -4 0 -8 -16 -8 -35z"/>
<path d="M5874 7185 c-3 -8 -3 -19 1 -25 11 -18 25 -11 25 15 0 27 -17 34 -26
10z"/>
<path d="M5630 7150 c-53 -10 -127 -49 -153 -79 -27 -32 -92 -81 -106 -81 -6
0 -11 -9 -11 -20 0 -11 -9 -29 -20 -40 -11 -11 -29 -20 -40 -20 -28 0 -25 -17
8 -49 22 -23 34 -27 64 -23 33 4 38 1 44 -22 4 -19 1 -33 -11 -46 -24 -26 -43
-25 -47 2 -3 22 -4 22 -18 4 -8 -10 -25 -28 -37 -41 -13 -12 -23 -26 -23 -31
0 -5 -21 -8 -48 -6 -42 3 -51 0 -80 -27 -31 -31 -32 -34 -2 -32 8 0 22 -4 30
-9 13 -9 12 -13 -7 -29 -13 -11 -23 -25 -23 -33 0 -7 -16 -24 -34 -38 -32 -23
-35 -30 -41 -100 -7 -69 -6 -76 14 -88 12 -8 21 -21 21 -30 0 -18 80 -102 97
-102 7 0 13 -4 13 -10 0 -5 14 -25 30 -43 22 -26 30 -45 30 -73 l0 -37 43 47
c27 29 57 50 80 57 44 12 47 24 10 34 -38 9 -56 36 -34 52 9 7 26 13 39 13 26
0 30 17 5 23 -10 3 0 5 22 6 38 1 39 1 17 -15 -12 -8 -22 -19 -22 -23 0 -17
33 -21 49 -7 10 10 32 14 60 12 36 -3 50 -10 82 -44 21 -23 53 -49 71 -58 18
-9 46 -26 63 -38 16 -11 37 -20 46 -18 8 1 29 -4 45 -13 16 -8 37 -15 47 -15
9 0 17 -4 17 -10 0 -5 13 -10 29 -10 17 0 33 -5 36 -11 4 -6 19 -7 37 -4 21 5
35 2 49 -11 19 -17 20 -17 13 0 -7 17 -5 17 26 1 37 -19 56 -9 45 24 -6 21
-38 24 -78 6 -13 -5 -27 -1 -45 12 -23 17 -28 29 -30 74 -2 30 -1 73 3 97 7
49 21 53 88 23 23 -10 76 -30 117 -44 88 -30 129 -47 150 -62 18 -14 101 -30
235 -46 55 -6 106 -16 113 -22 19 -15 15 -135 -6 -177 -13 -27 -22 -34 -40
-32 -23 3 -23 3 5 -28 27 -31 28 -31 42 -11 8 13 24 21 43 21 26 0 28 2 21 23
-10 26 -10 193 0 203 3 4 44 10 89 15 46 4 103 12 128 18 73 17 88 15 94 -16
9 -46 10 -117 2 -140 -6 -19 -4 -23 16 -24 18 0 14 -4 -16 -15 -21 -7 -42 -12
-46 -9 -4 3 -24 -2 -43 -10 -24 -10 -36 -22 -39 -40 -3 -14 -2 -27 1 -30 11
-6 93 34 88 42 -3 5 15 6 38 5 33 -3 59 3 100 24 31 15 59 33 62 40 3 7 21 18
41 25 21 6 42 15 47 19 6 5 31 11 58 15 26 4 47 10 47 14 0 11 60 29 120 36
30 3 79 11 108 17 40 9 56 8 64 0 17 -17 54 -15 72 3 8 8 20 15 26 15 16 0
141 102 206 168 13 14 28 21 35 16 8 -4 9 -3 5 4 -4 7 -1 12 7 12 8 0 20 7 27
15 13 15 50 21 50 7 0 -4 13 -13 29 -20 27 -12 28 -15 29 -89 0 -48 -5 -90
-15 -112 -8 -20 -16 -49 -18 -65 -3 -15 -7 -37 -10 -47 -4 -10 -2 -19 2 -19
12 0 3 -73 -10 -82 -8 -5 -7 -15 3 -35 8 -15 15 -31 17 -34 1 -3 -11 -21 -27
-39 -16 -18 -31 -37 -32 -42 -2 -5 -13 -10 -25 -10 -14 -2 -19 -7 -15 -16 3
-8 -1 -20 -9 -26 -27 -21 -39 -43 -33 -59 3 -9 12 -13 20 -10 19 7 18 -21 -1
-37 -11 -9 -13 -24 -8 -58 3 -26 9 -52 14 -57 4 -6 7 -20 7 -32 -2 -22 -28
-26 -41 -5 -4 6 -18 12 -31 12 -12 0 -33 11 -46 25 -24 26 -40 32 -40 16 0 -5
8 -12 18 -14 16 -4 16 -5 0 -6 -10 0 -18 -5 -18 -10 0 -5 -9 -7 -20 -4 -22 6
-26 -7 -8 -25 9 -9 9 -12 -1 -12 -17 0 -50 -41 -51 -62 0 -10 5 -18 11 -18 7
0 8 -12 4 -32 -12 -58 -15 -66 -36 -71 -15 -4 -19 -2 -15 9 3 8 2 14 -3 14
-18 0 -19 -14 -4 -41 9 -16 14 -32 9 -36 -6 -7 -21 8 -28 30 -2 4 -19 0 -38
-9 -19 -10 -29 -19 -22 -22 17 -5 15 -32 -3 -32 -8 0 -15 7 -15 15 0 8 -9 15
-20 15 -10 0 -23 7 -28 16 -7 12 -11 13 -17 4 -4 -6 -2 -17 4 -23 20 -20 13
-40 -13 -35 -18 4 -26 0 -30 -16 -7 -25 -3 -29 31 -28 15 0 40 -9 55 -20 16
-11 33 -16 38 -13 13 8 40 -13 40 -31 0 -8 -10 -14 -25 -14 -18 0 -25 -5 -25
-20 0 -13 -5 -18 -15 -14 -11 5 -15 -1 -15 -19 0 -23 -3 -24 -47 -23 -27 0
-54 7 -61 14 -7 6 -20 12 -27 12 -20 0 -30 -21 -15 -30 8 -5 10 -15 5 -26 -7
-18 -7 -18 -14 -1 -6 16 -9 17 -18 5 -6 -7 -11 -16 -11 -21 0 -4 -3 -20 -6
-35 -4 -15 -2 -42 3 -60 8 -27 7 -33 -4 -29 -8 4 -15 -4 -19 -19 -4 -13 -11
-24 -16 -24 -6 0 -10 -7 -10 -15 0 -15 -16 -20 -57 -16 -15 1 -23 -4 -23 -14
0 -21 -20 -19 -21 3 -3 46 -17 92 -29 92 -5 0 -6 -9 -3 -21 4 -12 0 -25 -8
-30 -21 -13 -29 -11 -30 9 0 13 -3 11 -10 -6 -8 -22 -10 -23 -26 -6 -13 12
-14 19 -5 22 19 6 14 39 -7 45 -37 9 -50 -10 -49 -72 1 -53 3 -60 24 -65 30
-8 65 -103 43 -117 -20 -13 -29 -11 -35 6 -4 8 -13 15 -21 15 -17 0 -63 -45
-63 -61 0 -5 -11 -9 -24 -9 -13 0 -31 -2 -39 -6 -10 -3 -16 4 -20 25 -7 31
-27 43 -27 16 0 -8 -4 -15 -10 -15 -5 0 -10 7 -10 15 0 8 -5 15 -10 15 -6 0
-9 -6 -8 -12 2 -8 -5 -12 -18 -10 -23 3 -55 -49 -34 -56 15 -5 -7 -32 -26 -32
-8 0 -14 -4 -14 -10 0 -5 -18 -10 -40 -10 -27 0 -40 4 -40 13 0 8 -11 20 -25
27 -20 11 -27 11 -40 0 -12 -10 -15 -10 -15 3 0 18 -41 86 -52 87 -11 0 -21
-66 -13 -98 6 -29 5 -29 -34 -29 -23 0 -46 6 -52 13 -6 8 -29 14 -51 14 -59 0
-80 14 -68 46 16 41 12 54 -15 54 -14 0 -25 -5 -25 -10 0 -6 -23 -9 -55 -8
-30 1 -55 6 -55 11 0 5 -9 6 -19 2 -13 -4 -24 1 -33 13 -11 17 -65 37 -84 32
-9 -2 -24 21 -24 37 0 8 10 11 29 7 21 -5 30 -2 35 12 10 26 -12 34 -76 27
-38 -4 -62 -2 -72 6 -12 10 -19 8 -35 -8 -12 -12 -25 -21 -29 -21 -10 0 -64
56 -63 64 1 3 -1 6 -4 6 -3 0 -9 0 -15 0 -5 0 -10 -8 -10 -17 -1 -17 -1 -17
-14 -1 -8 11 -20 15 -34 11 -20 -5 -21 -3 -15 28 5 28 4 31 -12 26 -10 -4 -23
-3 -30 3 -8 7 -19 4 -35 -10 -23 -20 -50 -27 -50 -12 0 4 7 17 15 30 14 19 14
24 -1 48 -15 22 -15 27 -3 35 11 7 9 9 -8 9 -12 0 -23 3 -26 8 -2 4 -3 2 -1
-4 5 -22 -11 -30 -34 -18 -19 9 -20 13 -8 17 27 11 19 30 -9 23 -28 -7 -30 -4
-15 24 6 11 17 17 25 14 8 -4 15 -1 15 6 0 9 -11 11 -40 6 -43 -7 -52 4 -25
30 21 21 19 33 -4 27 -27 -7 -34 12 -16 47 l16 30 -31 0 c-28 0 -29 2 -18 20
10 16 10 24 0 41 -16 26 -1 49 33 49 19 0 22 4 18 21 -5 17 -11 20 -38 15 -47
-9 -83 10 -81 43 2 38 12 49 40 44 23 -5 56 15 56 33 0 4 8 13 18 21 15 13 13
14 -19 8 -34 -5 -37 -3 -43 21 -4 15 -3 30 1 33 5 3 10 22 12 41 1 19 9 42 17
51 18 20 18 29 -1 29 -8 0 -15 -7 -15 -15 0 -20 -16 -19 -24 1 -6 15 27 53 47
54 4 0 7 7 7 16 0 15 -2 15 -23 2 -26 -18 -67 -7 -67 17 0 17 -27 20 -50 5
-12 -8 -12 -10 -1 -10 11 0 10 -4 -3 -19 -15 -17 -15 -19 -1 -25 9 -3 26 -6
37 -6 17 0 18 -3 8 -15 -7 -8 -20 -15 -29 -15 -20 0 -62 -29 -43 -30 6 0 12
-9 12 -20 0 -21 15 -27 25 -10 3 6 23 10 43 10 26 0 33 -3 25 -11 -7 -7 -9
-33 -6 -70 6 -57 5 -59 -18 -59 -13 0 -37 -1 -54 -2 -26 -3 -30 0 -27 20 4 28
-12 28 -32 0 -12 -16 -16 -18 -16 -7 0 9 9 24 20 34 11 10 20 26 20 36 0 9 6
19 13 22 9 3 7 10 -6 23 -14 15 -21 16 -36 7 -11 -7 -23 -8 -32 -2 -23 15 -37
10 -42 -13 -3 -17 -5 -14 -6 10 0 20 -6 32 -13 31 -7 -1 -30 -1 -50 0 -46 1
-49 19 -12 68 24 32 25 36 10 51 -15 15 -16 15 -16 -6 0 -19 -5 -22 -39 -22
-45 0 -54 17 -44 87 5 36 3 43 -12 43 -11 0 -15 -5 -11 -15 4 -11 -2 -15 -21
-15 -14 0 -33 -9 -42 -19 -23 -27 -78 -25 -85 2 -2 11 -9 16 -16 12 -14 -8 11
-50 64 -105 20 -22 38 -49 39 -60 1 -20 17 -29 17 -10 0 6 4 10 9 10 4 0 6
-10 4 -23 -4 -17 2 -26 22 -35 14 -7 32 -12 40 -12 17 0 20 -16 5 -25 -15 -9
-12 -25 4 -25 8 0 28 -22 45 -50 17 -27 35 -50 41 -50 5 0 10 -7 10 -15 0 -9
7 -18 15 -21 8 -4 15 -15 15 -26 0 -11 8 -22 19 -25 10 -2 23 -14 29 -26 5
-12 33 -50 61 -85 28 -34 51 -67 51 -73 0 -5 5 -7 10 -4 6 3 10 1 10 -6 0 -19
50 -79 66 -79 20 0 18 -8 -13 -36 l-28 -25 27 5 c43 10 103 -34 103 -75 1 -9
7 -24 15 -34 12 -15 12 -18 -3 -26 -27 -15 -20 -36 14 -43 23 -4 29 -10 25
-23 -7 -24 4 -40 37 -52 19 -8 27 -17 27 -36 0 -27 18 -33 38 -13 9 9 12 7 12
-11 0 -12 4 -20 9 -17 5 3 12 -1 15 -10 10 -27 7 -44 -9 -44 -9 0 -15 -9 -15
-23 0 -18 10 -29 40 -43 29 -13 39 -24 36 -36 -3 -12 3 -18 23 -20 18 -2 26
-9 26 -23 0 -13 5 -18 15 -15 25 7 110 1 131 -10 14 -8 18 -17 13 -34 -4 -19
-1 -26 15 -31 12 -3 21 -12 21 -18 1 -13 71 -50 79 -41 3 3 0 14 -7 24 -7 11
-12 21 -12 23 0 2 31 3 70 2 52 -1 75 -7 90 -20 30 -27 24 -36 -20 -29 -25 4
-40 3 -40 -4 0 -5 -11 -13 -25 -16 -14 -4 -25 -11 -25 -16 0 -6 11 -10 25 -10
14 0 25 -4 25 -10 0 -5 11 -10 25 -10 14 0 25 5 25 10 0 6 7 10 15 10 8 0 15
7 15 15 0 22 18 18 46 -10 14 -14 29 -25 35 -25 6 0 5 -8 -2 -21 -12 -23 -15
-23 59 -3 16 5 22 2 22 -10 0 -12 10 -16 40 -16 29 0 40 4 40 15 0 9 -9 15
-24 15 -13 0 -32 3 -40 6 -15 6 -15 8 1 19 18 13 63 1 63 -17 0 -4 9 -8 21 -8
13 0 19 -5 15 -12 -3 -7 -9 -21 -12 -30 -4 -10 -15 -18 -25 -18 -11 0 -19 -4
-19 -9 0 -13 26 -21 67 -21 30 0 35 3 30 19 -4 18 -3 18 39 4 24 -8 44 -19 44
-24 0 -5 14 -9 30 -9 34 0 40 -15 9 -23 -21 -6 -21 -6 5 -33 14 -16 28 -25 32
-21 4 4 15 0 25 -9 13 -12 38 -16 86 -17 79 0 102 -5 81 -19 -16 -10 137 1
170 13 12 5 22 13 22 19 0 5 12 7 28 4 20 -4 35 1 57 20 17 14 42 26 57 26 15
0 31 6 35 13 10 16 49 37 68 37 8 0 15 4 15 9 0 14 64 33 83 25 13 -4 17 -1
17 15 0 12 5 21 10 21 6 0 10 -8 8 -17 -2 -10 5 -19 15 -21 11 -2 18 2 16 10
-1 7 -1 22 0 33 1 15 3 17 10 6 7 -11 11 -9 21 8 6 13 9 29 6 37 -3 7 3 22 13
31 11 10 24 34 29 53 l10 35 2 -30 2 -30 9 33 c12 39 26 41 35 5 10 -44 32
-73 50 -66 18 7 10 63 -12 76 -19 11 -18 37 1 37 8 0 15 -9 15 -20 0 -26 38
-27 83 -3 28 15 29 18 12 21 -11 2 -23 9 -27 16 -6 8 -8 7 -8 -2 0 -10 -5 -10
-20 -2 -12 6 -30 8 -40 5 -11 -4 -25 -3 -32 2 -9 5 -1 10 22 13 22 4 34 11 32
19 -2 10 5 12 26 8 17 -3 34 -1 41 6 9 9 16 9 31 -1 17 -10 20 -10 20 6 0 15
-6 17 -35 14 -19 -2 -35 0 -34 4 1 16 61 58 67 47 9 -14 82 -27 82 -14 0 5
-12 11 -27 13 -38 4 -41 36 -8 73 14 17 25 36 25 43 0 6 5 12 11 12 14 0 53
41 64 66 5 13 9 15 12 7 7 -19 34 -16 31 3 -2 10 3 19 10 21 6 3 12 -3 12 -13
0 -36 24 -94 39 -95 10 0 12 -2 4 -6 -7 -2 -13 -11 -13 -19 0 -8 -3 -13 -7
-12 -14 4 -73 -26 -73 -37 0 -6 15 -16 33 -24 46 -20 65 -39 72 -72 4 -16 11
-29 16 -29 6 0 8 3 6 8 -3 4 3 25 14 46 10 22 19 47 19 57 0 12 9 19 27 21 24
3 27 7 29 45 2 39 0 42 -17 32 -16 -8 -19 -6 -19 10 0 11 -7 27 -16 35 -14 15
-14 16 5 16 25 0 29 31 6 50 -22 18 -18 30 10 30 20 0 24 5 22 23 -2 18 4 23
28 25 16 2 40 15 53 28 14 13 28 21 33 18 8 -4 14 13 21 61 2 11 9 20 15 20 7
0 17 5 24 12 6 6 18 9 25 6 8 -3 14 1 14 11 0 9 5 16 10 16 6 0 10 7 10 15 0
8 -7 15 -16 15 -21 0 -45 25 -35 36 5 5 14 26 21 47 8 26 17 37 31 37 17 0 19
5 14 33 -6 29 -3 35 19 45 17 7 29 23 32 41 3 16 19 38 35 50 16 12 29 26 29
31 0 5 18 28 40 52 22 24 42 51 46 61 3 9 9 17 15 17 5 0 15 16 23 35 14 33
32 51 20 20 -4 -9 0 -15 10 -15 9 0 16 6 16 13 0 16 98 141 114 145 6 2 25 26
41 55 17 29 40 56 52 62 12 5 28 22 34 38 7 15 24 45 39 65 15 21 42 68 60
104 18 37 37 65 41 62 5 -3 14 15 20 40 6 25 17 51 25 57 8 6 14 27 14 46 0
21 6 36 16 40 8 3 13 12 10 19 -3 8 -2 14 3 14 15 0 41 78 41 122 0 23 6 49
14 57 24 28 25 131 1 131 -11 0 -15 -11 -15 -37 0 -42 -19 -87 -35 -84 -5 1
-9 13 -8 27 1 13 -3 24 -8 24 -5 0 -14 12 -19 26 -6 14 -15 22 -21 19 -6 -4
-8 -13 -5 -21 4 -11 -1 -13 -19 -8 -20 5 -25 2 -25 -12 0 -27 16 -48 29 -40 6
4 16 -4 23 -18 6 -15 18 -25 26 -24 16 3 26 -58 11 -68 -5 -3 -6 2 -3 10 9 22
-9 20 -31 -4 -18 -19 -14 -57 5 -45 6 3 7 -1 4 -9 -8 -21 -19 -20 -41 3 -48
50 -88 52 -107 6 -8 -19 -26 -50 -39 -67 -24 -32 -35 -65 -41 -122 -2 -16 -16
-41 -34 -58 -34 -31 -40 -28 -17 12 15 26 20 100 8 100 -5 0 -8 21 -9 47 -1
26 -6 49 -12 51 -9 3 -9 9 -1 23 5 11 9 34 7 52 -2 24 -7 31 -20 29 -22 -4
-24 16 -3 24 18 7 20 50 3 57 -9 4 -9 8 -3 14 26 21 57 203 34 203 -4 0 -5 9
-2 20 3 11 1 20 -3 20 -18 0 -61 -46 -68 -72 -5 -24 -3 -28 14 -28 11 0 20 -4
20 -10 0 -5 -11 -10 -25 -10 -28 0 -34 -26 -12 -61 10 -17 9 -22 -8 -32 -11
-7 -27 -12 -35 -12 -10 0 -16 -12 -18 -38 -3 -34 -5 -36 -19 -21 -20 20 -27
12 -51 -59 -19 -56 -36 -76 -84 -93 -11 -4 -18 -17 -18 -30 0 -14 -7 -27 -15
-30 -21 -8 -19 -21 4 -27 13 -3 21 1 24 12 4 13 5 13 6 -3 1 -13 6 -17 21 -13
17 4 20 0 20 -34 0 -37 -2 -39 -30 -39 -27 0 -30 3 -30 30 0 24 -6 33 -26 40
-14 6 -30 10 -35 10 -14 0 -11 -78 4 -83 9 -3 9 -9 0 -28 -6 -13 -17 -42 -24
-64 -6 -22 -15 -44 -19 -50 -4 -5 -8 -29 -8 -52 -1 -36 2 -43 19 -43 23 0 24
-9 3 -38 -9 -14 -13 -30 -8 -44 5 -16 3 -20 -9 -15 -20 8 -57 -20 -57 -44 0
-13 -7 -19 -23 -19 -19 0 -26 -8 -36 -40 -11 -39 -34 -53 -44 -27 -3 6 -4 -6
-2 -28 1 -22 1 -33 -2 -24 -6 22 -73 31 -92 12 -7 -8 -18 -12 -25 -10 -14 5
-14 109 1 114 7 3 9 25 6 66 -7 72 -8 74 -27 58 -11 -10 -19 -8 -35 6 -25 21
-26 29 -6 67 8 15 12 38 9 50 -3 14 1 27 10 35 8 7 20 38 27 69 14 71 42 112
75 112 13 0 24 5 24 10 0 6 7 10 15 10 8 0 15 4 15 10 0 5 10 9 23 7 18 -2 23
4 25 31 2 18 9 32 16 32 9 0 15 21 20 61 8 84 8 101 -4 94 -18 -11 -11 17 8
31 29 22 33 16 27 -38 -5 -39 -4 -49 4 -38 6 8 11 23 11 33 0 9 5 17 10 17 17
0 11 29 -10 47 -11 10 -20 23 -20 30 0 17 30 44 41 38 5 -4 9 10 9 31 0 27 -7
43 -27 61 -24 23 -25 26 -10 35 9 5 17 14 17 20 0 9 -3 9 -12 0 -18 -18 -28
-14 -28 11 0 13 -3 27 -7 30 -3 4 -8 20 -10 37 -2 22 1 30 12 30 9 0 18 -8 21
-17 15 -48 37 -65 48 -37 7 18 -15 49 -47 66 -13 7 -25 5 -43 -7 -30 -19 -48
-11 -40 20 7 28 -24 55 -65 55 -14 0 -40 7 -57 16 -19 9 -49 14 -74 12 l-43
-4 30 -13 30 -13 -45 -14 c-62 -19 -73 -18 -65 5 7 22 -21 36 -49 25 -11 -4
-16 -1 -16 14 0 17 -9 21 -76 27 -41 4 -78 4 -82 1 -3 -4 -5 -22 -4 -41 2 -32
0 -34 -33 -41 -25 -4 -42 -1 -61 11 -21 13 -31 15 -48 6 -11 -6 -39 -12 -61
-13 -35 -3 -40 -6 -43 -30 -5 -39 -17 -35 -44 14 -19 35 -31 43 -73 55 -27 7
-75 12 -105 12 -95 -2 -96 -2 -66 22 68 53 5 105 -123 102 -95 -3 -252 -41
-269 -65 -7 -10 -35 -27 -63 -39 -32 -14 -49 -27 -49 -39 0 -10 -7 -21 -16
-24 -8 -3 -12 -11 -8 -17 10 -17 -37 -111 -53 -105 -7 3 -30 -6 -50 -20 -22
-14 -45 -23 -55 -20 -10 3 -27 9 -38 12 -15 5 -20 2 -20 -11 0 -15 -7 -17 -54
-12 -57 6 -135 36 -156 62 -7 8 -19 15 -27 15 -9 0 -13 6 -9 15 7 19 -20 19
-54 0 -35 -20 -50 -18 -50 4 0 11 -15 32 -34 46 -32 24 -35 25 -69 10 -20 -8
-59 -15 -86 -15 -30 0 -52 -5 -55 -12 -5 -10 -7 -10 -12 0 -19 40 -101 -19
-107 -78 -2 -18 -13 -41 -24 -50 -21 -17 -15 -29 20 -43 10 -4 17 -15 15 -24
-2 -12 4 -19 20 -21 12 -2 22 -9 22 -17 0 -20 23 -24 42 -8 15 14 19 12 41
-11 13 -14 31 -26 39 -26 8 0 20 -6 26 -12 14 -14 30 -16 148 -20 70 -3 90 -8
155 -41 51 -25 88 -37 116 -37 23 0 58 -7 77 -17 33 -15 43 -15 158 1 68 10
166 22 218 27 52 5 104 13 115 19 11 5 56 18 100 29 54 14 84 27 96 42 11 15
21 19 30 13 19 -11 37 -11 79 1 50 15 100 47 101 65 1 8 4 4 8 -10 4 -16 15
-26 30 -28 23 -4 86 21 96 38 3 5 22 6 41 3 34 -6 36 -4 29 16 -6 20 -3 21 44
21 27 0 52 -4 56 -10 3 -5 12 -7 19 -4 8 3 22 -6 33 -20 11 -13 32 -26 48 -28
30 -3 51 -27 43 -49 -3 -8 -7 -18 -9 -24 -4 -11 -50 -28 -123 -46 -28 -6 -57
-16 -63 -22 -8 -6 -13 -6 -13 0 0 6 -34 2 -79 -7 -44 -10 -82 -15 -85 -12 -3
2 -13 -1 -22 -9 -12 -10 -62 -13 -202 -14 -163 0 -190 -3 -214 -18 -20 -14
-37 -17 -71 -12 -68 10 -217 -12 -303 -45 l-76 -29 -72 17 c-39 9 -72 20 -74
24 -2 5 -26 8 -53 8 -28 0 -63 7 -79 15 -19 10 -43 13 -72 9 -27 -3 -73 2
-123 14 -44 10 -97 17 -117 14 -23 -2 -38 0 -38 7 0 6 -7 8 -16 4 -9 -3 -20 0
-24 7 -7 11 -12 11 -23 2 -7 -7 -16 -10 -18 -7 -3 2 -25 7 -50 10 -42 5 -136
19 -207 31 -18 4 -35 10 -38 15 -3 5 -13 9 -23 9 -25 0 -101 57 -101 75 0 9
-7 18 -15 21 -22 9 12 56 35 49 12 -4 25 3 38 20 23 29 28 30 50 9 9 -10 18
-12 20 -6 1 5 12 8 23 5 15 -4 22 0 26 15 3 13 15 22 31 24 19 2 32 16 53 53
15 28 28 52 28 55 1 3 -15 6 -35 8 -21 1 -33 -2 -29 -8 3 -5 13 -10 21 -10 29
0 13 -19 -21 -26 -41 -7 -65 8 -65 41 0 13 -6 25 -12 28 -25 8 -48 -5 -48 -27
0 -22 -19 -54 -52 -90 -22 -24 -23 -9 -3 19 10 13 13 30 9 53 -5 23 -2 37 6
42 7 4 10 15 7 24 -9 23 -37 32 -48 15 -7 -10 -9 -6 -8 16 2 35 -9 84 -24 103
-8 10 -7 16 4 23 20 13 29 11 29 -6 0 -8 5 -15 11 -15 6 0 8 7 5 16 -18 47
-18 66 2 87 30 34 42 62 42 102 0 29 3 36 16 31 8 -3 12 -2 9 4 -3 6 -9 9 -13
9 -4 -1 -23 -5 -42 -9z m-90 -249 c0 -6 -4 -13 -10 -16 -5 -3 -10 1 -10 9 0 9
5 16 10 16 6 0 10 -4 10 -9z m-37 -38 c-13 -2 -33 -2 -45 0 -13 2 -3 4 22 4
25 0 35 -2 23 -4z m2197 -123 c0 -5 -4 -10 -10 -10 -5 0 -10 5 -10 10 0 6 5
10 10 10 6 0 10 -4 10 -10z m-2005 -60 c3 -5 1 -10 -4 -10 -6 0 -11 5 -11 10
0 6 2 10 4 10 3 0 8 -4 11 -10z m1273 -14 c1 -3 0 -6 -3 -6 -3 0 -23 0 -45 0
-22 0 -40 4 -40 9 0 10 84 7 88 -3z m-911 -18 c-3 -8 -6 -5 -6 6 -1 11 2 17 5
13 3 -3 4 -12 1 -19z m1783 -58 c0 -5 -7 -7 -15 -4 -8 4 -15 8 -15 10 0 2 7 4
15 4 8 0 15 -4 15 -10z m700 -110 c0 -5 -4 -10 -10 -10 -5 0 -10 5 -10 10 0 6
5 10 10 10 6 0 10 -4 10 -10z m267 -187 c-3 -10 -5 -4 -5 12 0 17 2 24 5 18 2
-7 2 -21 0 -30z m-1260 -35 c11 -14 9 -100 -2 -118 -7 -12 -32 -23 -77 -34
-22 -5 -31 -1 -45 20 -16 25 -16 27 3 41 12 10 15 17 7 20 -16 6 -5 33 13 33
8 0 14 6 14 14 0 8 12 19 28 24 37 14 48 14 59 0z m706 -3 c4 -8 2 -17 -3 -20
-6 -4 -10 3 -10 14 0 25 6 27 13 6z m677 0 c-7 -8 -19 -15 -26 -15 -8 0 -11 6
-8 15 4 8 15 15 26 15 17 0 18 -3 8 -15z m-1593 -63 c19 -12 20 -136 2 -154
-25 -25 -72 -47 -132 -62 l-58 -14 -10 24 c-13 36 -11 91 4 106 8 7 12 20 10
30 -10 35 146 94 184 70z m1831 -14 c17 -17 15 -68 -2 -68 -8 0 -23 -3 -33 -7
-17 -7 -17 -6 0 11 13 13 16 27 12 47 -7 30 3 37 23 17z m-3868 -39 c0 -5 -4
-9 -10 -9 -5 0 -10 7 -10 16 0 8 5 12 10 9 6 -3 10 -10 10 -16z m3377 -131
c19 -39 21 -52 11 -78 -7 -20 -11 -22 -18 -10 -5 8 -10 30 -10 48 0 17 -4 32
-10 32 -5 0 -10 7 -10 15 0 23 25 18 37 -7z m178 -147 c3 -5 1 -12 -5 -16 -5
-3 -10 1 -10 9 0 18 6 21 15 7z m-115 -140 c0 -6 -4 -13 -10 -16 -5 -3 -10 1
-10 9 0 9 5 16 10 16 6 0 10 -4 10 -9z m205 -11 c-3 -5 -11 -10 -16 -10 -6 0
-7 5 -4 10 3 6 11 10 16 10 6 0 7 -4 4 -10z m-735 -31 c0 -5 -4 -9 -10 -9 -5
0 -10 7 -10 16 0 8 5 12 10 9 6 -3 10 -10 10 -16z m423 -57 c-5 -22 -23 -31
-23 -12 0 10 23 40 27 36 1 -1 0 -12 -4 -24z m-213 -161 c0 -6 -4 -13 -10 -16
-5 -3 -10 1 -10 9 0 9 5 16 10 16 6 0 10 -4 10 -9z m-28 -55 c4 -23 -20 -34
-28 -12 -8 21 4 52 15 40 5 -5 11 -18 13 -28z m-422 -26 c0 -5 -4 -10 -10 -10
-5 0 -10 5 -10 10 0 6 5 10 10 10 6 0 10 -4 10 -10z m363 -59 c2 -10 1 -25 -4
-32 -6 -10 -9 -4 -9 19 0 36 5 42 13 13z m-2966 -63 c-3 -8 -6 -5 -6 6 -1 11
2 17 5 13 3 -3 4 -12 1 -19z m-87 -8 c0 -5 -4 -10 -10 -10 -5 0 -10 5 -10 10
0 6 5 10 10 10 6 0 10 -4 10 -10z m175 0 c3 -5 1 -10 -4 -10 -6 0 -11 5 -11
10 0 6 2 10 4 10 3 0 8 -4 11 -10z m2643 -84 c3 -12 -1 -17 -10 -14 -7 3 -15
13 -16 22 -3 12 1 17 10 14 7 -3 15 -13 16 -22z m-2653 1 c8 -9 10 -19 4 -28
-7 -12 -9 -12 -9 1 0 12 -2 13 -9 1 -7 -10 -13 -11 -27 -2 -17 9 -17 10 -2 11
11 0 15 5 12 15 -8 19 13 20 31 2z m2423 -70 c2 -11 -3 -17 -17 -17 -23 0 -35
15 -26 31 10 15 39 6 43 -14z m-20 -81 c-2 -17 -7 -22 -20 -18 -21 5 -23 23
-6 40 16 16 28 5 26 -22z m372 -17 c0 -5 -4 -9 -10 -9 -5 0 -10 7 -10 16 0 8
5 12 10 9 6 -3 10 -10 10 -16z m-55 -86 c-6 -24 -8 -25 -16 -10 -7 12 -6 21 3
31 18 19 22 12 13 -21z m-556 -59 c-16 -19 -29 -17 -29 4 0 26 11 34 27 21 10
-9 10 -15 2 -25z m71 14 c0 -16 -3 -19 -11 -11 -6 6 -8 16 -5 22 11 17 16 13
16 -11z m720 -13 c0 -8 -4 -15 -10 -15 -5 0 -7 7 -4 15 4 8 8 15 10 15 2 0 4
-7 4 -15z m-160 -145 c0 -5 -11 -10 -25 -10 -14 0 -25 5 -25 10 0 6 11 10 25
10 14 0 25 -4 25 -10z m-77 -50 c-3 -12 -8 -19 -11 -16 -5 6 5 36 12 36 2 0 2
-9 -1 -20z m-6 -62 c-3 -8 -6 -5 -6 6 -1 11 2 17 5 13 3 -3 4 -12 1 -19z
m-827 2 c0 -5 -7 -10 -16 -10 -8 0 -12 5 -9 10 3 6 10 10 16 10 5 0 9 -4 9
-10z m87 -27 c-3 -10 -5 -4 -5 12 0 17 2 24 5 18 2 -7 2 -21 0 -30z m-90 -15
c-3 -8 -6 -5 -6 6 -1 11 2 17 5 13 3 -3 4 -12 1 -19z m-367 -118 c0 -5 -5 -10
-11 -10 -5 0 -7 5 -4 10 3 6 8 10 11 10 2 0 4 -4 4 -10z m94 -29 c3 -5 -1 -11
-9 -14 -9 -4 -12 -1 -8 9 6 16 10 17 17 5z m444 -328 c-4 -20 -39 -25 -45 -6
-4 10 11 18 40 22 5 0 7 -7 5 -16z"/>
<path d="M7570 7124 c0 -14 -5 -34 -10 -44 -8 -16 -7 -18 4 -14 8 3 19 19 25
36 14 41 14 48 -4 48 -9 0 -15 -10 -15 -26z"/>
<path d="M7892 7138 c6 -18 28 -21 28 -4 0 9 -7 16 -16 16 -9 0 -14 -5 -12
-12z"/>
<path d="M7920 7090 c0 -14 7 -20 23 -20 13 0 28 -5 34 -11 9 -9 16 -8 28 5
16 15 14 17 -19 31 -48 20 -66 19 -66 -5z"/>
<path d="M9422 7085 c-11 -14 -24 -25 -30 -25 -5 0 -1 -25 9 -57 11 -31 19
-62 19 -70 0 -7 6 -13 13 -13 9 0 12 26 13 95 1 52 0 95 -2 95 -1 0 -11 -11
-22 -25z"/>
<path d="M8137 6994 c-10 -11 13 -34 34 -34 11 0 19 7 19 15 0 8 -4 15 -9 15
-5 0 -16 2 -23 5 -8 3 -17 3 -21 -1z"/>
<path d="M6050 6945 c0 -8 8 -15 19 -15 30 0 102 -37 156 -79 27 -22 53 -37
57 -35 5 3 -3 15 -17 26 -14 10 -25 24 -25 30 0 15 -48 51 -94 70 -52 22 -96
23 -96 3z"/>
<path d="M8230 6925 c-11 -13 -6 -15 39 -15 28 0 51 5 51 10 0 6 -11 10 -24
10 -13 0 -31 2 -39 5 -7 3 -20 -1 -27 -10z"/>
<path d="M9395 6848 c5 -59 7 -63 15 -36 9 29 3 68 -10 68 -4 0 -6 -15 -5 -32z"/>
<path d="M5360 6819 c0 -5 5 -7 10 -4 6 3 10 8 10 11 0 2 -4 4 -10 4 -5 0 -10
-5 -10 -11z"/>
<path d="M9329 6799 c-7 -34 -3 -63 17 -106 13 -28 24 -66 24 -82 0 -17 5 -31
11 -31 8 0 10 17 5 55 -4 35 -2 55 4 55 5 0 10 9 10 20 0 11 -4 20 -9 20 -5 0
-11 10 -13 21 -2 18 -46 60 -49 48z"/>
<path d="M5120 6715 c0 -16 16 -20 24 -6 3 5 -1 11 -9 15 -9 3 -15 0 -15 -9z"/>
<path d="M9120 6715 c0 -9 9 -15 25 -15 28 0 34 15 9 24 -25 10 -34 7 -34 -9z"/>
<path d="M5885 6690 c-4 -6 -3 -16 3 -22 6 -6 12 -6 17 2 4 6 3 16 -3 22 -6 6
-12 6 -17 -2z"/>
<path d="M5012 6673 c-15 -3 -22 -10 -20 -21 5 -24 29 -21 39 6 5 12 7 21 6
21 -1 -1 -12 -4 -25 -6z"/>
<path d="M6590 6661 l-35 -7 34 -5 c44 -8 132 1 125 12 -6 10 -71 10 -124 0z"/>
<path d="M8960 6659 c0 -5 5 -7 10 -4 6 3 10 8 10 11 0 2 -4 4 -10 4 -5 0 -10
-5 -10 -11z"/>
<path d="M5861 6624 c0 -11 3 -14 6 -6 3 7 2 16 -1 19 -3 4 -6 -2 -5 -13z"/>
<path d="M9200 6473 l1 -38 14 25 c19 33 19 50 0 50 -11 0 -15 -11 -15 -37z"/>
<path d="M4777 6483 c-4 -3 -7 -13 -7 -20 0 -12 3 -12 15 1 8 8 15 17 15 20 0
8 -15 7 -23 -1z"/>
<path d="M9104 6464 c-7 -27 -7 -27 -18 -5 -7 12 -15 19 -18 15 -10 -9 14 -44
30 -44 17 0 40 -23 51 -52 l9 -23 7 26 c5 20 0 38 -19 68 -15 23 -28 41 -31
41 -3 0 -8 -12 -11 -26z"/>
<path d="M8780 6471 c0 -6 5 -13 10 -16 6 -3 10 1 10 9 0 9 -4 16 -10 16 -5 0
-10 -4 -10 -9z"/>
<path d="M8820 6472 c0 -5 7 -13 16 -16 10 -4 14 -1 12 6 -5 15 -28 23 -28 10z"/>
<path d="M8543 6430 c-1 -11 2 -20 8 -20 5 0 9 9 9 20 0 11 -4 20 -8 20 -4 0
-8 -9 -9 -20z"/>
<path d="M9181 6374 c0 -11 3 -14 6 -6 3 7 2 16 -1 19 -3 4 -6 -2 -5 -13z"/>
<path d="M4832 6329 c-9 -18 -10 -37 -2 -77 12 -63 16 -72 36 -72 8 0 14 -8
14 -19 0 -39 31 -89 84 -136 42 -36 56 -55 56 -76 0 -14 7 -40 16 -55 11 -21
14 -24 12 -9 -1 11 4 30 11 43 10 20 10 27 -4 48 -8 13 -20 24 -25 24 -6 0
-10 14 -10 30 0 17 -5 30 -10 30 -6 0 -15 11 -20 25 -5 14 -17 28 -25 31 -9 4
-15 19 -15 40 0 34 -23 49 -33 22 -2 -8 -10 -2 -17 14 -7 14 -21 28 -31 31
-15 4 -19 17 -21 68 -3 57 -4 60 -16 38z"/>
<path d="M9190 6305 c-13 -16 -8 -18 27 -9 13 4 20 10 17 15 -8 14 -30 11 -44
-6z"/>
<path d="M8706 6251 c-4 -7 -5 -15 -2 -18 9 -9 19 4 14 18 -4 11 -6 11 -12 0z"/>
<path d="M5360 6106 c0 -9 -4 -16 -10 -16 -5 0 -10 -7 -10 -15 0 -15 -34 -82
-51 -99 -5 -6 -9 -25 -9 -43 0 -30 2 -33 24 -27 13 3 27 1 30 -5 10 -16 26
-13 26 4 0 8 6 15 13 15 20 0 40 17 33 28 -4 7 -15 8 -29 3 -19 -8 -22 -5 -23
20 -1 19 4 29 13 29 7 0 16 7 19 15 4 8 12 15 20 15 10 0 11 6 5 24 -7 17 -5
27 7 40 15 15 15 16 -5 16 -12 0 -28 3 -37 6 -11 4 -16 1 -16 -10z"/>
<path d="M6373 6033 c-3 -10 -17 -28 -32 -41 -25 -21 -25 -23 -8 -36 10 -8 27
-12 37 -9 16 4 20 14 20 54 0 50 -6 62 -17 32z"/>
<path d="M4897 5984 c-11 -11 5 -34 23 -34 26 0 45 26 24 34 -20 8 -39 8 -47
0z"/>
<path d="M4796 5948 c-11 -42 -7 -58 15 -58 17 0 20 5 17 37 -4 42 -23 55 -32
21z"/>
<path d="M4848 5943 c6 -2 18 -2 25 0 6 3 1 5 -13 5 -14 0 -19 -2 -12 -5z"/>
<path d="M4980 5890 c0 -11 5 -20 10 -20 6 0 10 9 10 20 0 11 -4 20 -10 20 -5
0 -10 -9 -10 -20z"/>
<path d="M4910 5886 c0 -9 5 -16 10 -16 6 0 10 4 10 9 0 6 -4 13 -10 16 -5 3
-10 -1 -10 -9z"/>
<path d="M6408 5863 c7 -3 16 -2 19 1 4 3 -2 6 -13 5 -11 0 -14 -3 -6 -6z"/>
<path d="M4850 5845 c0 -8 5 -15 10 -15 6 0 10 7 10 15 0 8 -4 15 -10 15 -5 0
-10 -7 -10 -15z"/>
<path d="M6800 5850 c0 -3 7 -13 14 -22 14 -19 56 -25 56 -9 0 5 2 15 5 23 4
9 -6 13 -35 13 -22 0 -40 -2 -40 -5z"/>
<path d="M5043 5815 c0 -22 2 -30 4 -17 2 12 2 30 0 40 -3 9 -5 -1 -4 -23z"/>
<path d="M5360 5841 c0 -5 -12 -11 -27 -13 -28 -3 -39 -28 -17 -35 18 -6 70
42 56 51 -7 4 -12 3 -12 -3z"/>
<path d="M4910 5805 c0 -8 5 -15 10 -15 6 0 10 7 10 15 0 8 -4 15 -10 15 -5 0
-10 -7 -10 -15z"/>
<path d="M5120 5810 c0 -6 -11 -23 -25 -38 -27 -28 -33 -62 -12 -62 16 0 70
87 62 100 -8 13 -25 13 -25 0z"/>
<path d="M4975 5770 c3 -5 8 -10 11 -10 2 0 4 5 4 10 0 6 -5 10 -11 10 -5 0
-7 -4 -4 -10z"/>
<path d="M4963 5724 c-3 -8 2 -23 11 -32 15 -15 16 -14 16 16 0 33 -16 43 -27
16z"/>
<path d="M5142 5711 c2 -7 7 -12 11 -12 12 1 9 15 -3 20 -7 2 -11 -2 -8 -8z"/>
<path d="M5430 5701 c0 -5 -13 -11 -30 -14 -27 -6 -43 -27 -20 -27 6 0 10 -10
10 -21 0 -18 -3 -19 -15 -9 -12 10 -16 9 -21 -4 -9 -24 -66 -49 -75 -34 -7 10
-12 9 -24 -3 -15 -15 -15 -18 -1 -32 20 -20 48 -12 79 23 21 23 36 29 94 35
38 4 74 10 79 13 15 12 10 35 -14 59 -22 23 -62 32 -62 14z"/>
<path d="M7088 5646 c-62 -32 -149 -55 -255 -67 -62 -7 -113 -16 -113 -21 0
-5 -19 -8 -42 -8 -24 1 -56 -1 -73 -4 -16 -3 -22 -3 -12 0 34 11 5 24 -54 24
-52 0 -59 -2 -59 -20 0 -17 -7 -20 -40 -20 -22 0 -40 5 -40 10 0 11 -53 14
-64 3 -4 -4 -21 -6 -39 -5 -35 3 -72 -16 -49 -25 18 -7 14 -24 -5 -21 -11 2
-22 -6 -28 -19 -10 -24 -25 -31 -25 -13 0 16 -19 12 -42 -10 -18 -17 -20 -22
-9 -33 11 -9 14 -9 18 1 6 16 21 15 39 -3 9 -8 29 -15 46 -15 22 0 29 -4 24
-15 -3 -8 2 -21 10 -30 10 -10 14 -24 10 -39 -7 -27 13 -49 37 -40 8 3 18 1
21 -4 3 -5 17 -7 31 -4 18 3 25 0 25 -12 0 -9 -4 -16 -10 -16 -5 0 -10 -7 -10
-16 0 -13 10 -15 53 -13 28 1 60 -1 69 -5 9 -4 25 -6 35 -4 14 3 20 -6 28 -37
12 -48 29 -49 33 0 2 19 7 35 13 35 5 0 9 -5 9 -11 0 -5 5 -7 10 -4 6 4 17 2
25 -5 10 -8 18 -8 32 1 15 9 26 8 52 -5 24 -13 36 -14 46 -6 10 8 14 8 17 -1
3 -10 10 -9 27 3 27 19 58 13 41 -7 -8 -9 -6 -14 5 -18 8 -4 14 -1 12 5 -1 6
18 15 43 20 146 27 147 27 156 60 11 38 34 49 35 16 0 -23 0 -23 22 5 12 16
30 47 39 70 12 31 17 36 17 19 1 -19 5 -22 29 -16 48 10 52 13 52 38 0 14 9
41 21 60 l21 36 -23 19 c-13 11 -41 25 -62 32 -29 10 -37 17 -34 30 3 10 -4
28 -15 41 -11 13 -15 24 -9 26 24 8 9 22 -23 22 -23 0 -36 5 -38 15 -3 13 -6
13 -30 1z m-21 -72 c-3 -3 -12 -4 -19 -1 -8 3 -5 6 6 6 11 1 17 -2 13 -5z
m210 -156 c-3 -8 -6 -5 -6 6 -1 11 2 17 5 13 3 -3 4 -12 1 -19z"/>
<path d="M5302 5508 c-16 -16 -15 -38 2 -38 18 0 39 27 31 40 -8 13 -18 13
-33 -2z"/>
<path d="M7327 5514 c-9 -10 2 -24 19 -24 8 0 14 7 14 15 0 15 -21 21 -33 9z"/>
<path d="M5230 5500 c0 -5 5 -10 10 -10 6 0 10 5 10 10 0 6 -4 10 -10 10 -5 0
-10 -4 -10 -10z"/>
<path d="M7458 5473 c12 -2 32 -2 45 0 12 2 2 4 -23 4 -25 0 -35 -2 -22 -4z"/>
<path d="M7387 5459 c8 -8 16 -8 30 0 16 9 14 10 -11 11 -22 0 -27 -3 -19 -11z"/>
<path d="M5560 5437 c0 -27 13 -36 26 -16 3 6 -1 18 -10 27 -15 15 -16 14 -16
-11z"/>
<path d="M5420 5360 c0 -13 11 -13 30 0 12 8 11 10 -7 10 -13 0 -23 -4 -23
-10z"/>
<path d="M7560 5320 c0 -5 -9 -10 -20 -10 -26 0 -26 -16 1 -23 23 -6 17 -27
-7 -27 -9 0 -14 -11 -14 -34 0 -28 4 -35 23 -38 14 -2 21 -9 21 -21 -1 -9 4
-17 12 -17 8 0 14 -4 14 -10 0 -23 21 -7 27 20 3 17 12 30 20 30 11 0 13 4 5
13 -5 6 -13 32 -17 56 -4 25 -13 51 -20 58 -16 15 -45 17 -45 3z"/>
<path d="M5547 5255 c-8 -19 8 -28 34 -20 19 7 20 7 2 21 -23 17 -30 17 -36
-1z"/>
<path d="M5930 5185 c0 -8 5 -15 10 -15 6 0 10 7 10 15 0 8 -4 15 -10 15 -5 0
-10 -7 -10 -15z"/>
<path d="M7470 5140 c0 -5 5 -10 10 -10 6 0 10 5 10 10 0 6 -4 10 -10 10 -5 0
-10 -4 -10 -10z"/>
<path d="M5575 5130 c-4 -6 -2 -17 5 -25 10 -12 14 -11 30 2 11 9 17 20 14 25
-7 12 -42 10 -49 -2z"/>
<path d="M5630 5090 c0 -5 4 -10 9 -10 6 0 13 5 16 10 3 6 -1 10 -9 10 -9 0
-16 -4 -16 -10z"/>
<path d="M6620 5066 c0 -14 5 -26 10 -26 6 0 10 7 10 15 0 8 0 18 1 22 0 4 -4
9 -10 11 -6 2 -11 -8 -11 -22z"/>
<path d="M7535 5080 c-3 -5 1 -10 9 -10 9 0 16 5 16 10 0 6 -4 10 -9 10 -6 0
-13 -4 -16 -10z"/>
<path d="M6790 5040 c0 -5 -12 -10 -26 -10 -35 0 -29 -34 7 -38 20 -2 28 2 33
20 8 32 8 38 -4 38 -5 0 -10 -4 -10 -10z"/>
<path d="M7534 5039 c-3 -6 0 -17 8 -25 13 -13 16 -13 27 0 7 8 10 20 6 26 -8
13 -32 13 -41 -1z"/>
<path d="M7350 5011 c-6 -12 -8 -27 -4 -33 5 -8 11 -1 16 17 9 36 3 44 -12 16z"/>
<path d="M7390 5020 c0 -5 5 -10 10 -10 6 0 10 5 10 10 0 6 -4 10 -10 10 -5 0
-10 -4 -10 -10z"/>
<path d="M6720 4959 c0 -5 5 -7 10 -4 6 3 10 8 10 11 0 2 -4 4 -10 4 -5 0 -10
-5 -10 -11z"/>
<path d="M6932 4922 c2 -43 14 -49 45 -21 46 44 46 54 -3 54 -42 0 -43 -1 -42
-33z"/>
<path d="M7265 4920 c-3 -5 -1 -10 4 -10 6 0 11 5 11 10 0 6 -2 10 -4 10 -3 0
-8 -4 -11 -10z"/>
<path d="M7273 4835 c-14 -15 2 -89 18 -80 13 9 11 39 -3 53 -10 10 -10 15 1
21 7 5 9 11 5 14 -5 3 -14 -1 -21 -8z"/>
<path d="M7340 4820 c0 -5 5 -10 10 -10 6 0 10 5 10 10 0 6 -4 10 -10 10 -5 0
-10 -4 -10 -10z"/>
<path d="M12590 4800 c-11 -8 -2 -10 32 -7 26 2 51 6 54 10 11 11 -69 8 -86
-3z"/>
<path d="M6161 4734 c0 -11 3 -14 6 -6 3 7 2 16 -1 19 -3 4 -6 -2 -5 -13z"/>
<path d="M7120 4669 c0 -18 2 -19 15 -9 8 7 15 16 15 21 0 5 -7 9 -15 9 -9 0
-15 -9 -15 -21z"/>
<path d="M8385 4660 c3 -5 8 -10 11 -10 2 0 4 5 4 10 0 6 -5 10 -11 10 -5 0
-7 -4 -4 -10z"/>
<path d="M8336 4584 c-9 -9 -14 -19 -11 -22 3 -3 13 2 22 11 9 9 14 19 11 22
-3 3 -13 -2 -22 -11z"/>
<path d="M6915 4550 c-3 -5 -1 -10 4 -10 6 0 11 5 11 10 0 6 -2 10 -4 10 -3 0
-8 -4 -11 -10z"/>
<path d="M6870 4515 c-8 -9 -10 -28 -6 -49 6 -34 8 -34 26 -19 13 12 18 24 14
40 -5 18 -2 23 12 24 18 0 17 1 -1 9 -28 12 -31 12 -45 -5z"/>
<path d="M8044 4311 c-10 -35 -9 -40 9 -45 27 -7 49 4 42 22 -3 8 0 21 6 28 9
11 8 14 -5 14 -9 0 -16 5 -16 10 0 6 -6 10 -13 10 -7 0 -18 -18 -23 -39z"/>
<path d="M8000 4280 c0 -5 5 -10 11 -10 5 0 7 5 4 10 -3 6 -8 10 -11 10 -2 0
-4 -4 -4 -10z"/>
<path d="M7928 4254 c6 -33 22 -41 22 -11 0 14 -6 27 -13 30 -10 4 -13 -2 -9
-19z"/>
<path d="M5970 4213 c0 -13 5 -23 10 -23 13 0 13 11 0 30 -8 12 -10 11 -10 -7z"/>
<path d="M6012 4154 c1 -9 9 -19 16 -22 9 -3 13 2 10 14 -1 9 -9 19 -16 22 -9
3 -13 -2 -10 -14z"/>
<path d="M7670 4090 c13 -24 55 -24 55 0 0 10 -12 16 -33 18 -31 3 -33 2 -22
-18z"/>
<path d="M6677 3983 c-8 -8 25 -33 35 -27 5 3 8 12 8 20 0 14 -31 20 -43 7z"/>
<path d="M8190 3895 c-6 -8 -9 -18 -6 -23 3 -6 -1 -15 -9 -22 -18 -15 -20 -46
-4 -56 8 -4 8 -9 0 -17 -14 -14 -14 -77 -1 -77 6 0 10 5 10 10 0 6 15 10 34 8
38 -2 60 12 82 53 19 37 4 44 -30 14 -16 -14 -32 -22 -37 -19 -15 9 -29 80
-23 113 7 34 3 39 -16 16z"/>
<path d="M4097 3664 c5 -13 2 -15 -14 -10 -13 4 -25 0 -34 -10 -12 -15 -11
-16 11 -9 22 7 23 6 11 -9 -12 -14 -10 -16 19 -16 32 0 33 -1 16 -19 -21 -23
-62 -14 -60 13 2 14 -4 16 -30 10 -45 -9 -64 -21 -71 -44 -3 -11 -12 -20 -20
-20 -8 0 -17 -9 -20 -20 -7 -23 -53 -28 -73 -8 -14 14 -28 3 -34 -27 -2 -14
-13 -21 -33 -23 -35 -4 -49 -21 -33 -39 16 -20 -6 -40 -53 -46 -22 -3 -49 -13
-59 -22 -25 -23 -44 -11 -29 17 10 19 9 20 -12 15 -13 -4 -27 -7 -31 -7 -12 0
-9 -40 2 -40 6 0 10 -4 10 -10 0 -5 -13 -10 -29 -10 -18 0 -41 -10 -57 -25
-15 -14 -35 -25 -45 -25 -11 0 -19 -5 -19 -11 0 -14 -25 -39 -39 -39 -6 0 -11
-6 -11 -14 0 -23 -30 -40 -66 -38 -19 2 -34 -2 -34 -8 0 -5 5 -10 10 -10 19 0
10 -17 -16 -29 -22 -9 -30 -9 -43 3 -13 12 -18 12 -28 0 -7 -7 -13 -20 -13
-29 0 -12 -6 -15 -19 -10 -11 3 -22 1 -26 -5 -3 -5 -15 -10 -26 -10 -23 0 -69
-38 -69 -58 0 -9 -6 -12 -16 -8 -21 8 -41 -4 -24 -14 16 -10 4 -30 -17 -30
-11 0 -14 6 -10 23 5 19 2 22 -23 22 -30 0 -47 -12 -87 -60 -26 -30 -28 -41
-10 -48 6 -3 7 -6 1 -6 -5 -1 -20 8 -33 20 -13 13 -29 18 -39 14 -14 -5 -14
-7 -2 -16 19 -12 -47 0 -73 13 -13 7 -24 5 -36 -6 -15 -14 -20 -13 -49 4 -18
11 -37 20 -42 20 -19 0 -10 -21 13 -29 13 -5 31 -21 40 -35 21 -31 21 -37 3
-30 -8 3 -19 -3 -25 -14 -6 -11 -24 -23 -41 -27 -16 -4 -30 -13 -30 -21 0 -8
-7 -14 -15 -14 -7 0 -18 -7 -23 -17 -13 -23 -74 -11 -109 21 -15 14 -33 26
-40 26 -7 0 -13 4 -13 9 0 13 -48 1 -62 -17 -10 -12 -10 -16 0 -19 6 -3 12
-10 12 -17 0 -8 10 -26 21 -41 18 -22 20 -29 8 -36 -8 -5 -20 -7 -27 -4 -8 3
-20 5 -28 5 -8 0 -11 6 -8 15 4 8 1 15 -5 15 -25 0 -8 -42 21 -53 24 -9 21
-75 -4 -90 -26 -17 -22 -30 7 -23 18 5 25 2 25 -8 0 -9 -17 -16 -47 -21 -27
-4 -42 -10 -35 -12 20 -7 14 -57 -8 -71 -18 -11 -20 -10 -20 19 0 26 -3 29
-20 24 -12 -4 -27 -1 -35 5 -8 7 -41 10 -82 9 -50 -2 -75 1 -93 13 -22 14 -36
15 -108 5 l-83 -11 7 -30 c15 -70 49 -105 87 -91 19 8 32 -12 19 -28 -12 -15
-1 -45 26 -73 l21 -22 -26 -5 c-40 -7 -55 2 -49 29 5 18 3 22 -9 17 -9 -3 -14
-11 -11 -18 2 -7 -4 -21 -15 -31 -10 -9 -19 -27 -19 -38 0 -21 -24 -64 -43
-77 -5 -3 -1 -13 7 -22 23 -22 21 -24 -31 -23 -34 1 -57 -5 -78 -21 -16 -12
-46 -23 -65 -25 -29 -2 -35 0 -35 16 0 11 -6 21 -12 23 -9 3 -13 -6 -13 -26 0
-25 -4 -31 -21 -31 -12 0 -27 7 -33 16 -9 12 -17 13 -37 5 -28 -10 -55 0 -45
18 4 7 -1 11 -13 11 -11 0 -34 -18 -52 -42 l-33 -41 26 6 c30 8 61 -1 53 -14
-3 -4 -12 -6 -21 -2 -8 3 -26 -5 -40 -17 -13 -13 -24 -18 -24 -12 0 6 -17 14
-37 18 -21 4 -41 11 -44 16 -4 6 -18 2 -35 -8 -26 -18 -27 -19 -7 -22 26 -4
35 -35 18 -59 -11 -15 -16 -16 -27 -5 -10 10 -10 16 0 32 14 23 4 25 -32 9
-17 -8 -30 -9 -38 -2 -18 14 -48 24 -46 15 3 -18 -16 -42 -33 -42 -11 0 -23
-9 -27 -21 -5 -11 -10 -20 -12 -19 -3 1 -13 -2 -23 -6 -10 -3 -21 -3 -24 0 -4
4 2 9 13 12 27 7 49 43 35 57 -6 6 -11 7 -11 3 0 -5 -7 -2 -16 5 -14 11 -19 9
-34 -11 -10 -14 -16 -28 -14 -32 3 -4 -6 -8 -20 -8 -14 0 -26 5 -26 10 0 6 -7
10 -15 10 -11 0 -14 -7 -9 -25 4 -16 2 -25 -6 -25 -7 0 -10 -7 -6 -15 4 -11
-1 -15 -18 -15 -13 0 -39 -3 -57 -7 -30 -6 -33 -5 -21 9 11 14 10 17 -5 20
-10 2 -33 2 -51 0 -27 -4 -32 -8 -30 -25 2 -11 14 -24 27 -28 21 -8 23 -7 17
16 -4 14 -3 25 1 25 6 0 83 -78 83 -85 0 -3 -53 4 -82 11 -24 5 -28 3 -28 -14
0 -16 -9 -22 -40 -27 -30 -5 -40 -11 -40 -26 0 -10 -4 -19 -10 -19 -13 0 -13
3 2 35 6 14 19 25 29 25 29 0 32 19 4 26 -25 6 -102 0 -111 -9 -9 -8 8 -37 22
-37 17 0 19 -20 2 -21 -29 -3 -64 -6 -77 -7 -8 -1 -11 -10 -8 -21 5 -21 -10
-31 -49 -31 -13 0 -32 -9 -41 -20 -22 -26 -36 -26 -28 0 9 28 -18 26 -42 -2
-10 -13 -27 -25 -38 -26 -27 -5 -30 -9 -17 -25 19 -22 -28 -60 -63 -51 -14 4
-29 13 -32 21 -4 11 -15 13 -38 9 -24 -5 -34 -2 -39 9 -12 32 -26 13 -26 -35
0 -27 4 -50 8 -50 4 0 9 -11 10 -25 1 -14 -3 -25 -8 -25 -15 0 -13 -137 3
-144 9 -5 9 -7 0 -12 -10 -4 -13 -141 -13 -635 l0 -629 6391 0 c6083 0 6391 1
6384 18 -4 9 -16 53 -25 97 -33 148 -82 333 -111 420 -107 318 -230 534 -407
714 -53 54 -107 104 -119 110 -13 7 -23 18 -23 26 0 7 -7 15 -15 17 -14 3 -87
64 -173 146 -24 23 -53 42 -63 42 -10 0 -20 8 -23 18 -3 10 -16 24 -28 32 -23
15 -44 38 -76 79 -12 15 -30 24 -52 25 -19 1 -34 7 -33 12 2 11 -71 13 -82 2
-9 -9 -35 2 -35 15 0 13 -65 77 -79 77 -5 0 -11 -5 -13 -11 -2 -7 -18 -2 -41
11 -27 16 -35 26 -28 33 16 16 13 23 -10 24 -12 1 -26 9 -32 17 -15 19 -97 34
-97 17 0 -22 -30 -11 -36 14 -4 17 -13 25 -28 25 -24 1 -56 22 -56 37 0 14
-38 38 -75 47 -16 4 -35 16 -43 27 -7 10 -19 19 -27 19 -8 0 -30 10 -49 23
-88 56 -108 67 -120 67 -7 0 -25 9 -39 20 -17 13 -40 20 -71 20 -31 0 -46 4
-46 13 0 15 -66 20 -91 7 -10 -6 -26 -2 -48 11 -17 10 -38 19 -45 19 -8 0 -33
19 -56 42 -23 23 -59 50 -81 60 -22 9 -42 24 -45 33 -3 8 -17 15 -31 15 -13 0
-22 4 -18 9 3 6 -2 16 -11 23 -9 7 -42 38 -74 68 -32 30 -75 66 -95 80 -20 14
-61 50 -92 80 -49 48 -57 52 -67 38 -7 -9 -23 -19 -37 -21 -13 -2 -18 -2 -11
0 6 3 12 9 12 15 0 6 7 16 17 23 22 16 8 35 -27 35 -22 0 -38 11 -68 47 -35
40 -43 45 -56 34 -14 -12 -22 -9 -56 13 -22 14 -45 26 -51 26 -7 0 -56 45
-108 99 -94 97 -131 122 -201 137 -19 3 -45 13 -57 21 -40 26 -25 -1 24 -42
99 -85 145 -131 158 -156 27 -51 15 -386 -16 -486 -6 -17 -12 -44 -15 -60 -6
-36 -44 -163 -55 -185 -5 -10 -9 -25 -9 -33 0 -9 -7 -27 -16 -40 -9 -13 -13
-29 -10 -34 9 -14 -99 -206 -149 -266 -241 -286 -546 -422 -1047 -465 -75 -7
-180 -9 -235 -6 -54 3 -141 8 -193 11 -142 8 -334 39 -354 57 -6 4 -22 8 -37
8 -33 0 -205 42 -284 70 -33 12 -78 26 -100 32 -22 6 -44 15 -49 19 -6 5 -16
9 -24 9 -8 0 -28 6 -45 14 -18 7 -57 24 -87 36 -102 42 -145 61 -235 107 -101
51 -207 111 -215 121 -3 4 -21 15 -40 24 -19 10 -44 24 -54 30 -64 41 -134 83
-203 119 -43 23 -128 75 -190 116 -61 40 -123 77 -136 82 -14 6 -28 15 -32 21
-5 9 -37 28 -126 75 -11 5 -19 13 -19 17 0 5 -6 8 -13 8 -7 0 -31 15 -53 34
-21 18 -66 51 -99 72 -33 22 -92 69 -130 106 -39 36 -83 77 -100 90 -49 38
-139 133 -206 215 -34 43 -82 98 -105 123 -23 25 -88 99 -144 165 -56 66 -122
144 -148 174 -25 29 -54 70 -65 90 -10 20 -48 64 -83 97 -35 34 -64 66 -64 71
0 12 -45 33 -70 33 -11 0 -25 9 -32 20 -15 24 -30 27 -21 4z m-117 -108 c0 -3
-4 -8 -10 -11 -5 -3 -10 -1 -10 4 0 6 5 11 10 11 6 0 10 -2 10 -4z m-130 -96
c0 -5 -2 -10 -4 -10 -3 0 -8 5 -11 10 -3 6 -1 10 4 10 6 0 11 -4 11 -10z m44
-94 c-6 -15 -44 -29 -44 -17 0 11 23 31 37 31 7 0 10 -6 7 -14z m-104 -16 c0
-5 -4 -10 -9 -10 -6 0 -13 5 -16 10 -3 6 1 10 9 10 9 0 16 -4 16 -10z m-685
-320 c3 -5 1 -10 -4 -10 -6 0 -11 5 -11 10 0 6 2 10 4 10 3 0 8 -4 11 -10z
m-417 -135 c2 -25 -11 -34 -23 -15 -8 13 1 40 13 40 4 0 9 -11 10 -25z m67
-78 c0 -8 4 -19 8 -23 9 -10 9 -24 0 -24 -8 0 -33 48 -33 63 0 5 6 7 13 4 6
-2 12 -11 12 -20z m-175 -191 c0 -3 -4 -8 -10 -11 -5 -3 -10 -1 -10 4 0 6 5
11 10 11 6 0 10 -2 10 -4z m-266 -151 c3 -9 0 -15 -9 -15 -8 0 -15 7 -15 15 0
8 4 15 9 15 5 0 11 -7 15 -15z m-39 -25 c-3 -5 -13 -10 -21 -10 -8 0 -14 5
-14 10 0 6 9 10 21 10 11 0 17 -4 14 -10z m-75 -90 c0 -5 -4 -10 -10 -10 -5 0
-10 5 -10 10 0 6 5 10 10 10 6 0 10 -4 10 -10z m600 -88 c0 -13 -12 -22 -22
-16 -10 6 -1 24 13 24 5 0 9 -4 9 -8z m7758 -48 c15 -10 27 -12 38 -6 11 6 30
6 51 0 18 -5 37 -6 42 -3 5 3 12 1 16 -5 3 -6 22 -17 41 -25 46 -19 47 -47 2
-38 -18 3 -37 12 -43 19 -7 9 -22 11 -53 5 -23 -5 -45 -4 -48 0 -3 5 -13 9
-23 9 -21 0 -61 32 -61 49 0 15 11 14 38 -5z m-8594 -31 c16 -32 16 -33 -4
-33 -16 0 -20 7 -20 37 0 41 1 41 24 -4z m56 -41 c0 -5 9 -18 20 -30 23 -24 6
-32 -22 -9 -23 18 -30 47 -13 47 8 0 15 -4 15 -8z m1515 -33 c12 -18 -3 -22
-20 -5 -14 14 -14 16 -1 16 8 0 18 -5 21 -11z m7321 0 c3 -5 -14 -9 -38 -9
-28 0 -38 3 -29 9 17 11 60 11 67 0z m88 -44 c21 -32 12 -32 -36 2 -27 18 -35
29 -26 34 16 10 41 -4 62 -36z m-8864 5 c0 -5 -2 -10 -4 -10 -3 0 -8 5 -11 10
-3 6 -1 10 4 10 6 0 11 -4 11 -10z m452 -25 c0 -5 -5 -11 -11 -13 -6 -2 -11 4
-11 13 0 9 5 15 11 13 6 -2 11 -8 11 -13z m-407 -35 c8 -26 -4 -48 -16 -29
-12 19 -11 49 0 49 5 0 12 -9 16 -20z m8885 -15 c21 -25 -4 -44 -28 -22 -10 9
-22 14 -26 10 -4 -4 -4 0 0 10 8 21 37 22 54 2z m-9310 -5 c0 -5 -11 -10 -25
-10 -14 0 -25 5 -25 10 0 6 11 10 25 10 14 0 25 -4 25 -10z m-285 -40 c3 -5 1
-10 -4 -10 -6 0 -11 5 -11 10 0 6 2 10 4 10 3 0 8 -4 11 -10z m9700 -10 c8
-13 -15 -13 -35 0 -12 8 -11 10 7 10 12 0 25 -4 28 -10z m164 -47 c2 -2 -3 -3
-11 -3 -9 0 -19 7 -22 16 -6 15 -4 15 11 3 10 -7 20 -15 22 -16z m-10189 7 c0
-5 -5 -10 -11 -10 -5 0 -7 5 -4 10 3 6 8 10 11 10 2 0 4 -4 4 -10z m2690 -14
c0 -2 -7 -7 -16 -10 -8 -3 -12 -2 -9 4 6 10 25 14 25 6z m-2925 -52 c14 -6 14
-8 -1 -25 -21 -23 -49 -25 -40 -3 3 9 6 20 6 25 0 11 12 12 35 3z m65 -4 c0
-5 -7 -10 -16 -10 -8 0 -12 5 -9 10 3 6 10 10 16 10 5 0 9 -4 9 -10z m1650
-26 c0 -16 -16 -19 -25 -4 -8 13 4 32 16 25 5 -4 9 -13 9 -21z m1525 -34 c-3
-5 -10 -10 -16 -10 -5 0 -9 5 -9 10 0 6 7 10 16 10 8 0 12 -4 9 -10z m-3175
-41 c0 -5 -10 -9 -21 -9 -18 0 -19 2 -9 15 12 15 30 12 30 -6z m74 -4 c-4 -8
-17 -15 -30 -15 -42 0 -25 27 18 29 12 1 15 -4 12 -14z m10677 -24 c11 -13 11
-14 -5 -8 -12 5 -23 2 -30 -8 -7 -10 -16 -12 -25 -6 -11 7 -12 13 -3 23 14 18
45 17 63 -1z m-11136 -101 c3 -5 1 -10 -4 -10 -6 0 -11 5 -11 10 0 6 2 10 4
10 3 0 8 -4 11 -10z m-60 -19 c8 -15 -35 -35 -47 -23 -6 6 -7 15 -4 21 9 14
43 14 51 2z m-180 -161 c3 -5 1 -10 -4 -10 -6 0 -11 5 -11 10 0 6 2 10 4 10 3
0 8 -4 11 -10z m2200 -1380 c-3 -5 -13 -10 -21 -10 -8 0 -12 5 -9 10 3 6 13
10 21 10 8 0 12 -4 9 -10z"/>
<path d="M3755 3490 c3 -5 8 -10 11 -10 2 0 4 5 4 10 0 6 -5 10 -11 10 -5 0
-7 -4 -4 -10z"/>
<path d="M3685 3480 c-3 -5 -1 -10 4 -10 6 0 11 5 11 10 0 6 -2 10 -4 10 -3 0
-8 -4 -11 -10z"/>
<path d="M1500 3325 c-11 -13 -10 -14 4 -9 9 3 16 10 16 15 0 13 -6 11 -20 -6z"/>
<path d="M11560 3270 c0 -5 12 -10 26 -10 14 0 23 4 19 10 -3 6 -15 10 -26 10
-10 0 -19 -4 -19 -10z"/>
<path d="M3230 3139 c0 -5 5 -7 10 -4 6 3 10 8 10 11 0 2 -4 4 -10 4 -5 0 -10
-5 -10 -11z"/>
<path d="M2645 2971 c-6 -11 33 -26 43 -16 4 3 0 10 -8 15 -19 12 -27 12 -35
1z"/>
<path d="M12370 2722 c0 -10 41 -35 47 -28 7 7 -23 36 -36 36 -6 0 -11 -3 -11
-8z"/>
<path d="M1666 2345 c-3 -8 -1 -15 4 -15 6 0 10 7 10 15 0 8 -2 15 -4 15 -2 0
-6 -7 -10 -15z"/>
<path d="M1585 2100 c3 -5 8 -10 11 -10 2 0 4 5 4 10 0 6 -5 10 -11 10 -5 0
-7 -4 -4 -10z"/>
<path d="M820 2023 c0 -6 -3 -18 -6 -27 -3 -9 -1 -16 5 -16 17 0 25 30 12 43
-8 8 -11 8 -11 0z"/>
<path d="M145 1560 c-3 -5 1 -10 9 -10 9 0 16 5 16 10 0 6 -4 10 -9 10 -6 0
-13 -4 -16 -10z"/>
</g>
</svg>
